solid OpenSCAD_Model
  facet normal 1 0 0
    outer loop
      vertex 11.3 2.7755575615628914e-16 3.920816802978514
      vertex 11.3 2.7755575615628914e-16 0
      vertex 11.3 1 1.720816040039061
    endloop
  endfacet
  facet normal 1 0 0
    outer loop
      vertex 11.3 2.7755575615628914e-16 3.920816802978514
      vertex 11.3 1 1.720816040039061
      vertex 11.3 1 3.920816802978514
    endloop
  endfacet
  facet normal 0.7071067811865476 0 -0.7071067811865476
    outer loop
      vertex 11.3 2.7755575615628914e-16 3.920816802978514
      vertex 11.3 1 3.920816802978514
      vertex 12.8 0.4000000059604645 5.420816802978514
    endloop
  endfacet
  facet normal 0.7071067811865476 0 -0.7071067811865476
    outer loop
      vertex 11.3 2.7755575615628914e-16 3.920816802978514
      vertex 12.8 0.4000000059604645 5.420816802978514
      vertex 12.8 2.7755575615628914e-16 5.420816802978514
    endloop
  endfacet
  facet normal 0.7071066758194279 0.7071068865536516 0
    outer loop
      vertex 11.3 1 1.720816040039061
      vertex 10.499999809265137 1.7999999523162842 3.1208137512207017
      vertex 11.3 1 3.920816802978514
    endloop
  endfacet
  facet normal 0.7071066758194279 0.7071068865536516 0
    outer loop
      vertex 11.3 1 1.720816040039061
      vertex 10.499999809265137 1.7999999523162842 2.520815277099608
      vertex 10.499999809265137 1.7999999523162842 3.1208137512207017
    endloop
  endfacet
  facet normal 1 0 0
    outer loop
      vertex 10.499999809265137 1.7999999523162842 2.520815277099608
      vertex 10.499999809265137 2.200000047683716 2.520815277099608
      vertex 10.499999809265137 1.7999999523162842 3.1208137512207017
    endloop
  endfacet
  facet normal 1 0 0
    outer loop
      vertex 10.499999809265137 1.7999999523162842 3.1208137512207017
      vertex 10.499999809265137 2.200000047683716 2.520815277099608
      vertex 10.499999809265137 2.200000047683716 3.1208137512207017
    endloop
  endfacet
  facet normal 0.707106359717786 0 0.7071072026550578
    outer loop
      vertex 11.3 1 1.720816040039061
      vertex 11.3 2.200000047683716 1.720816040039061
      vertex 10.499999809265137 1.7999999523162842 2.520815277099608
    endloop
  endfacet
  facet normal 0.7071063597177861 0 0.7071072026550578
    outer loop
      vertex 10.499999809265137 1.7999999523162842 2.520815277099608
      vertex 11.3 2.200000047683716 1.720816040039061
      vertex 10.499999809265137 2.200000047683716 2.520815277099608
    endloop
  endfacet
  facet normal 1 0 0
    outer loop
      vertex 11.3 1 1.720816040039061
      vertex 11.3 2.7755575615628914e-16 0
      vertex 11.3 2.200000047683716 1.720816040039061
    endloop
  endfacet
  facet normal 1 0 0
    outer loop
      vertex 11.3 2.200000047683716 1.720816040039061
      vertex 11.3 2.7755575615628914e-16 0
      vertex 11.3 2.200000047683716 0
    endloop
  endfacet
  facet normal 0.7071080455883101 0 -0.7071055167825242
    outer loop
      vertex 11.3 1 3.920816802978514
      vertex 10.499999809265137 1.7999999523162842 3.1208137512207017
      vertex 11.3 1.899999976158142 3.920816802978514
    endloop
  endfacet
  facet normal 0.70710804558831 0 -0.7071055167825241
    outer loop
      vertex 10.499999809265137 1.7999999523162842 3.1208137512207017
      vertex 10.499999809265137 2.200000047683716 3.1208137512207017
      vertex 11.3 1.899999976158142 3.920816802978514
    endloop
  endfacet
  facet normal 0.70710804558831 0 -0.7071055167825241
    outer loop
      vertex 11.3 1.899999976158142 3.920816802978514
      vertex 10.499999809265137 2.200000047683716 3.1208137512207017
      vertex 11.3 2.200000047683716 3.920816802978514
    endloop
  endfacet
  facet normal 0.7071067811865476 0 -0.7071067811865476
    outer loop
      vertex 11.3 1 3.920816802978514
      vertex 11.3 1.899999976158142 3.920816802978514
      vertex 12.8 0.4000000059604645 5.420816802978514
    endloop
  endfacet
  facet normal 0.7071067741620727 0.7071067882110224 0
    outer loop
      vertex 11.3 1.899999976158142 3.920816802978514
      vertex 12.8 0.4000000059604645 20.379185104370116
      vertex 12.8 0.4000000059604645 5.420816802978514
    endloop
  endfacet
  facet normal 1 0 0
    outer loop
      vertex 11.3 1.899999976158142 3.920816802978514
      vertex 11.3 2.200000047683716 3.920816802978514
      vertex 11.3 1.899999976158142 21.879185104370116
    endloop
  endfacet
  facet normal 1 0 0
    outer loop
      vertex 12.8 2.7755575615628914e-16 5.420816802978514
      vertex 12.8 0.4000000059604645 5.420816802978514
      vertex 12.8 2.7755575615628914e-16 20.379185104370116
    endloop
  endfacet
  facet normal 0 -1 0
    outer loop
      vertex 10.499999809265137 2.200000047683716 2.520815277099608
      vertex 11.3 2.200000047683716 1.720816040039061
      vertex 10.499999809265137 2.200000047683716 3.1208137512207017
    endloop
  endfacet
  facet normal 0 -1 0
    outer loop
      vertex 11.3 2.200000047683716 1.720816040039061
      vertex 11.3 2.200000047683716 3.920816802978514
      vertex 10.499999809265137 2.200000047683716 3.1208137512207017
    endloop
  endfacet
  facet normal 0 1 0
    outer loop
      vertex 11.3 2.7755575615628914e-16 3.920816802978514
      vertex 26.8 2.7755575615628914e-16 0
      vertex 11.3 2.7755575615628914e-16 0
    endloop
  endfacet
  facet normal 0 1 0
    outer loop
      vertex 11.3 2.7755575615628914e-16 3.920816802978514
      vertex 12.8 2.7755575615628914e-16 5.420816802978514
      vertex 26.8 2.7755575615628914e-16 0
    endloop
  endfacet
  facet normal 0.7071067741620727 0.7071067882110224 0
    outer loop
      vertex 11.3 1.899999976158142 3.920816802978514
      vertex 11.3 1.899999976158142 21.879185104370116
      vertex 12.8 0.4000000059604645 20.379185104370116
    endloop
  endfacet
  facet normal 1 0 0
    outer loop
      vertex 11.3 1.899999976158142 21.879185104370116
      vertex 11.3 2.200000047683716 3.920816802978514
      vertex 11.3 2.200000047683716 21.879185104370116
    endloop
  endfacet
  facet normal 1 0 0
    outer loop
      vertex 12.8 0.4000000059604645 5.420816802978514
      vertex 12.8 0.4000000059604645 20.379185104370116
      vertex 12.8 2.7755575615628914e-16 20.379185104370116
    endloop
  endfacet
  facet normal 0.7071067811865476 0 0.7071067811865476
    outer loop
      vertex 11.3 2.7755575615628914e-16 21.879185104370116
      vertex 12.8 2.7755575615628914e-16 20.379185104370116
      vertex 12.8 0.4000000059604645 20.379185104370116
    endloop
  endfacet
  facet normal 0.7071067811865476 0 0.7071067811865476
    outer loop
      vertex 11.3 2.7755575615628914e-16 21.879185104370116
      vertex 12.8 0.4000000059604645 20.379185104370116
      vertex 11.3 1 21.879185104370116
    endloop
  endfacet
  facet normal 1 0 0
    outer loop
      vertex 11.3 2.7755575615628914e-16 21.879185104370116
      vertex 11.3 1 21.879185104370116
      vertex 11.3 1 24.079184913635252
    endloop
  endfacet
  facet normal 0 1 0
    outer loop
      vertex 11.3 2.7755575615628914e-16 21.879185104370116
      vertex 12.8 2.7755575615628914e-16 30.42081537246704
      vertex 12.8 2.7755575615628914e-16 20.379185104370116
    endloop
  endfacet
  facet normal 1 0 0
    outer loop
      vertex 11.3 2.7755575615628914e-16 21.879185104370116
      vertex 11.3 1 24.079184913635252
      vertex 11.3 2.7755575615628914e-16 28.92081489562988
    endloop
  endfacet
  facet normal 0.7071066758194279 0.7071068865536515 0
    outer loop
      vertex 11.3 1 21.879185104370116
      vertex 10.499999809265137 1.7999999523162842 22.679184341430663
      vertex 10.499999809265137 1.7999999523162842 23.27918472290039
    endloop
  endfacet
  facet normal 0.7071063597177861 0 0.7071072026550578
    outer loop
      vertex 11.3 1 21.879185104370116
      vertex 11.3 1.899999976158142 21.879185104370116
      vertex 10.499999809265137 1.7999999523162842 22.679184341430663
    endloop
  endfacet
  facet normal 1 0 0
    outer loop
      vertex 10.499999809265137 1.7999999523162842 22.679184341430663
      vertex 10.499999809265137 2.200000047683716 22.679184341430663
      vertex 10.499999809265137 1.7999999523162842 23.27918472290039
    endloop
  endfacet
  facet normal 0.7071063597177861 0 0.7071072026550578
    outer loop
      vertex 10.499999809265137 1.7999999523162842 22.679184341430663
      vertex 11.3 1.899999976158142 21.879185104370116
      vertex 10.499999809265137 2.200000047683716 22.679184341430663
    endloop
  endfacet
  facet normal 0.707106359717786 0 0.7071072026550577
    outer loop
      vertex 11.3 1.899999976158142 21.879185104370116
      vertex 11.3 2.200000047683716 21.879185104370116
      vertex 10.499999809265137 2.200000047683716 22.679184341430663
    endloop
  endfacet
  facet normal 0.7071067811865476 0 0.7071067811865476
    outer loop
      vertex 11.3 1 21.879185104370116
      vertex 12.8 0.4000000059604645 20.379185104370116
      vertex 11.3 1.899999976158142 21.879185104370116
    endloop
  endfacet
  facet normal 0.7071066758194279 0.7071068865536515 0
    outer loop
      vertex 11.3 1 21.879185104370116
      vertex 10.499999809265137 1.7999999523162842 23.27918472290039
      vertex 11.3 1 24.079184913635252
    endloop
  endfacet
  facet normal 1 0 0
    outer loop
      vertex 10.499999809265137 1.7999999523162842 23.27918472290039
      vertex 10.499999809265137 2.200000047683716 22.679184341430663
      vertex 10.499999809265137 2.200000047683716 23.27918472290039
    endloop
  endfacet
  facet normal 0.7071067811865476 0 -0.7071067811865476
    outer loop
      vertex 11.3 1 24.079184913635252
      vertex 10.499999809265137 1.7999999523162842 23.27918472290039
      vertex 11.3 2.200000047683716 24.079184913635252
    endloop
  endfacet
  facet normal 0.7071067811865476 0 -0.7071067811865476
    outer loop
      vertex 10.499999809265137 1.7999999523162842 23.27918472290039
      vertex 10.499999809265137 2.200000047683716 23.27918472290039
      vertex 11.3 2.200000047683716 24.079184913635252
    endloop
  endfacet
  facet normal 1 0 0
    outer loop
      vertex 11.3 1 24.079184913635252
      vertex 11.3 2.200000047683716 24.079184913635252
      vertex 11.3 1 26.720815086364745
    endloop
  endfacet
  facet normal 1 0 0
    outer loop
      vertex 11.3 1 26.720815086364745
      vertex 11.3 2.200000047683716 24.079184913635252
      vertex 11.3 2.200000047683716 26.720815086364745
    endloop
  endfacet
  facet normal 0 1 0
    outer loop
      vertex 12.8 2.7755575615628914e-16 5.420816802978514
      vertex 12.8 2.7755575615628914e-16 20.379185104370116
      vertex 16.900505113601685 2.7755575615628914e-16 44.9
    endloop
  endfacet
  facet normal 0 -1 0
    outer loop
      vertex 11.3 2.200000047683716 1.720816040039061
      vertex 11.3 2.200000047683716 0
      vertex 16.27918462753296 2.200000047683716 46.4
    endloop
  endfacet
  facet normal 0 -1 0
    outer loop
      vertex 11.3 2.200000047683716 1.720816040039061
      vertex 16.27918462753296 2.200000047683716 46.4
      vertex 11.3 2.200000047683716 3.920816802978514
    endloop
  endfacet
  facet normal 0 -1 0
    outer loop
      vertex 10.499999809265137 2.200000047683716 22.679184341430663
      vertex 11.3 2.200000047683716 21.879185104370116
      vertex 10.499999809265137 2.200000047683716 23.27918472290039
    endloop
  endfacet
  facet normal 0 -1 0
    outer loop
      vertex 10.499999809265137 2.200000047683716 23.27918472290039
      vertex 11.3 2.200000047683716 21.879185104370116
      vertex 11.3 2.200000047683716 24.079184913635252
    endloop
  endfacet
  facet normal 0 -1 0
    outer loop
      vertex 11.3 2.200000047683716 3.920816802978514
      vertex 16.27918462753296 2.200000047683716 46.4
      vertex 11.3 2.200000047683716 21.879185104370116
    endloop
  endfacet
  facet normal 0 1 0
    outer loop
      vertex 12.8 2.7755575615628914e-16 5.420816802978514
      vertex 16.900505113601685 2.7755575615628914e-16 44.9
      vertex 26.8 2.7755575615628914e-16 0
    endloop
  endfacet
  facet normal 0 1 0
    outer loop
      vertex 11.3 2.7755575615628914e-16 21.879185104370116
      vertex 11.3 2.7755575615628914e-16 28.92081489562988
      vertex 12.8 2.7755575615628914e-16 30.42081537246704
    endloop
  endfacet
  facet normal 0.7071068935781168 0 -0.7071066687949604
    outer loop
      vertex 11.3 2.7755575615628914e-16 28.92081489562988
      vertex 11.3 1 28.92081489562988
      vertex 12.8 0.4000000059604645 30.42081537246704
    endloop
  endfacet
  facet normal 1 0 0
    outer loop
      vertex 11.3 2.7755575615628914e-16 28.92081489562988
      vertex 11.3 1 24.079184913635252
      vertex 11.3 1 26.720815086364745
    endloop
  endfacet
  facet normal 1 0 0
    outer loop
      vertex 11.3 2.7755575615628914e-16 28.92081489562988
      vertex 11.3 1 26.720815086364745
      vertex 11.3 1 28.92081489562988
    endloop
  endfacet
  facet normal 0.7071068935781167 0 -0.7071066687949604
    outer loop
      vertex 11.3 2.7755575615628914e-16 28.92081489562988
      vertex 12.8 0.4000000059604645 30.42081537246704
      vertex 12.8 2.7755575615628914e-16 30.42081537246704
    endloop
  endfacet
  facet normal 0.7071066758194279 0.7071068865536515 0
    outer loop
      vertex 11.3 1 26.720815086364745
      vertex 10.499999809265137 1.7999999523162842 27.520815277099608
      vertex 10.499999809265137 1.7999999523162842 28.120815658569335
    endloop
  endfacet
  facet normal 0.7071066758194279 0.7071068865536515 0
    outer loop
      vertex 11.3 1 26.720815086364745
      vertex 10.499999809265137 1.7999999523162842 28.120815658569335
      vertex 11.3 1 28.92081489562988
    endloop
  endfacet
  facet normal 0.7071063597177861 0 -0.7071072026550578
    outer loop
      vertex 11.3 1 28.92081489562988
      vertex 10.499999809265137 1.7999999523162842 28.120815658569335
      vertex 11.3 1.899999976158142 28.92081489562988
    endloop
  endfacet
  facet normal 1 0 0
    outer loop
      vertex 10.499999809265137 1.7999999523162842 27.520815277099608
      vertex 10.499999809265137 2.200000047683716 27.520815277099608
      vertex 10.499999809265137 1.7999999523162842 28.120815658569335
    endloop
  endfacet
  facet normal 0.7071067811865476 0 0.7071067811865476
    outer loop
      vertex 11.3 1 26.720815086364745
      vertex 11.3 2.200000047683716 26.720815086364745
      vertex 10.499999809265137 1.7999999523162842 27.520815277099608
    endloop
  endfacet
  facet normal 0.7071067811865476 0 0.7071067811865476
    outer loop
      vertex 10.499999809265137 1.7999999523162842 27.520815277099608
      vertex 11.3 2.200000047683716 26.720815086364745
      vertex 10.499999809265137 2.200000047683716 27.520815277099608
    endloop
  endfacet
  facet normal 1 0 0
    outer loop
      vertex 10.499999809265137 1.7999999523162842 28.120815658569335
      vertex 10.499999809265137 2.200000047683716 27.520815277099608
      vertex 10.499999809265137 2.200000047683716 28.120815658569335
    endloop
  endfacet
  facet normal 0.7071063597177861 0 -0.7071072026550578
    outer loop
      vertex 10.499999809265137 1.7999999523162842 28.120815658569335
      vertex 10.499999809265137 2.200000047683716 28.120815658569335
      vertex 11.3 1.899999976158142 28.92081489562988
    endloop
  endfacet
  facet normal 0.707106359717786 0 -0.7071072026550577
    outer loop
      vertex 11.3 1.899999976158142 28.92081489562988
      vertex 10.499999809265137 2.200000047683716 28.120815658569335
      vertex 11.3 2.200000047683716 28.92081489562988
    endloop
  endfacet
  facet normal 0.7071068935781167 0 -0.7071066687949604
    outer loop
      vertex 11.3 1 28.92081489562988
      vertex 11.3 1.899999976158142 28.92081489562988
      vertex 12.8 0.4000000059604645 30.42081537246704
    endloop
  endfacet
  facet normal 0 1 0
    outer loop
      vertex 12.8 2.7755575615628914e-16 20.379185104370116
      vertex 12.8 2.7755575615628914e-16 30.42081537246704
      vertex 16.900505113601685 2.7755575615628914e-16 44.9
    endloop
  endfacet
  facet normal 0.7071067741620728 0.7071067882110224 0
    outer loop
      vertex 11.3 1.899999976158142 41.42081537246704
      vertex 12.8 0.4000000059604645 40.799494886398314
      vertex 12.8 0.4000000059604645 30.42081537246704
    endloop
  endfacet
  facet normal 0.7071067741620727 0.7071067882110224 0
    outer loop
      vertex 11.3 1.899999976158142 28.92081489562988
      vertex 11.3 1.899999976158142 41.42081537246704
      vertex 12.8 0.4000000059604645 30.42081537246704
    endloop
  endfacet
  facet normal 1 0 0
    outer loop
      vertex 11.3 1.899999976158142 28.92081489562988
      vertex 11.3 2.200000047683716 28.92081489562988
      vertex 11.3 1.899999976158142 41.42081537246704
    endloop
  endfacet
  facet normal 1 0 0
    outer loop
      vertex 11.3 1.899999976158142 41.42081537246704
      vertex 11.3 2.200000047683716 28.92081489562988
      vertex 11.3 2.200000047683716 41.42081537246704
    endloop
  endfacet
  facet normal 1 0 0
    outer loop
      vertex 12.8 2.7755575615628914e-16 30.42081537246704
      vertex 12.8 0.4000000059604645 30.42081537246704
      vertex 12.8 2.7755575615628914e-16 40.799494886398314
    endloop
  endfacet
  facet normal 1 0 0
    outer loop
      vertex 12.8 0.4000000059604645 30.42081537246704
      vertex 12.8 0.4000000059604645 40.799494886398314
      vertex 12.8 2.7755575615628914e-16 40.799494886398314
    endloop
  endfacet
  facet normal 0 1 0
    outer loop
      vertex 12.8 2.7755575615628914e-16 30.42081537246704
      vertex 12.8 2.7755575615628914e-16 40.799494886398314
      vertex 16.900505113601685 2.7755575615628914e-16 44.9
    endloop
  endfacet
  facet normal 0 -1 0
    outer loop
      vertex 10.499999809265137 2.200000047683716 27.520815277099608
      vertex 11.3 2.200000047683716 26.720815086364745
      vertex 10.499999809265137 2.200000047683716 28.120815658569335
    endloop
  endfacet
  facet normal 0 -1 0
    outer loop
      vertex 11.3 2.200000047683716 26.720815086364745
      vertex 11.3 2.200000047683716 28.92081489562988
      vertex 10.499999809265137 2.200000047683716 28.120815658569335
    endloop
  endfacet
  facet normal 0 -1 0
    outer loop
      vertex 11.3 2.200000047683716 21.879185104370116
      vertex 16.27918462753296 2.200000047683716 46.4
      vertex 11.3 2.200000047683716 24.079184913635252
    endloop
  endfacet
  facet normal 0 -1 0
    outer loop
      vertex 11.3 2.200000047683716 24.079184913635252
      vertex 16.27918462753296 2.200000047683716 46.4
      vertex 11.3 2.200000047683716 26.720815086364745
    endloop
  endfacet
  facet normal 0 -1 0
    outer loop
      vertex 11.3 2.200000047683716 26.720815086364745
      vertex 16.27918462753296 2.200000047683716 46.4
      vertex 11.3 2.200000047683716 28.92081489562988
    endloop
  endfacet
  facet normal 0 -1 0
    outer loop
      vertex 11.3 2.200000047683716 28.92081489562988
      vertex 16.27918462753296 2.200000047683716 46.4
      vertex 11.3 2.200000047683716 41.42081537246704
    endloop
  endfacet
  facet normal 0 -1 0
    outer loop
      vertex 16.27918462753296 2.200000047683716 46.4
      vertex 11.3 2.200000047683716 0
      vertex 23.32081537246704 2.200000047683716 46.4
    endloop
  endfacet
  facet normal 0.7071067811865476 0 -0.7071067811865476
    outer loop
      vertex 12.8 2.7755575615628914e-16 40.799494886398314
      vertex 12.8 0.4000000059604645 40.799494886398314
      vertex 16.900505113601685 2.7755575615628914e-16 44.9
    endloop
  endfacet
  facet normal 0.49999997823808984 0.7071068119625348 -0.49999997823808984
    outer loop
      vertex 11.3 1.899999976158142 41.42081537246704
      vertex 16.900505113601685 0.4000000059604645 44.9
      vertex 12.8 0.4000000059604645 40.799494886398314
    endloop
  endfacet
  facet normal 0.7071067811865475 0 -0.7071067811865475
    outer loop
      vertex 11.3 1.899999976158142 41.42081537246704
      vertex 11.3 2.200000047683716 41.42081537246704
      vertex 16.27918462753296 1.899999976158142 46.4
    endloop
  endfacet
  facet normal 0.49999997823808984 0.7071068119625348 -0.49999997823808984
    outer loop
      vertex 11.3 1.899999976158142 41.42081537246704
      vertex 16.27918462753296 1.899999976158142 46.4
      vertex 16.900505113601685 0.4000000059604645 44.9
    endloop
  endfacet
  facet normal 0.7071067811865475 0 -0.7071067811865475
    outer loop
      vertex 11.3 2.200000047683716 41.42081537246704
      vertex 16.27918462753296 2.200000047683716 46.4
      vertex 16.27918462753296 1.899999976158142 46.4
    endloop
  endfacet
  facet normal 0.7071067811865476 0 -0.7071067811865476
    outer loop
      vertex 12.8 0.4000000059604645 40.799494886398314
      vertex 16.900505113601685 0.4000000059604645 44.9
      vertex 16.900505113601685 2.7755575615628914e-16 44.9
    endloop
  endfacet
  facet normal 1.074631405231747e-16 1 -2.814071427803981e-18
    outer loop
      vertex 16.900505113601685 2.7755575615628914e-16 44.9
      vertex 19.30068524479866 0 37.92616797760129
      vertex 19.3 0 37.9
    endloop
  endfacet
  facet normal 9.411775289544808e-17 1 -7.407146529743114e-18
    outer loop
      vertex 16.900505113601685 2.7755575615628914e-16 44.9
      vertex 19.302739042043687 0 37.95226423218846
      vertex 19.30068524479866 0 37.92616797760129
    endloop
  endfacet
  facet normal 8.367874638489878e-17 1 -1.1016514596826907e-17
    outer loop
      vertex 16.900505113601685 2.7755575615628914e-16 44.9
      vertex 19.30615581870079 0 37.97821723073721
      vertex 19.302739042043687 0 37.95226423218846
    endloop
  endfacet
  facet normal -2.016100571297674e-14 1 -7.047013029893311e-15
    outer loop
      vertex 16.900505113601685 2.7755575615628914e-16 44.9
      vertex 19.310926187038422 2.7755575615628914e-16 38.00395584255457
      vertex 19.30615581870079 0 37.97821723073721
    endloop
  endfacet
  facet normal 1.849397235114624e-14 1 6.464323555502409e-15
    outer loop
      vertex 16.900505113601685 2.7755575615628914e-16 44.9
      vertex 19.317037093639374 0 38.02940952181816
      vertex 19.310926187038422 2.7755575615628914e-16 38.00395584255457
    endloop
  endfacet
  facet normal 6.234842822706254e-17 1 -1.8468395961519194e-17
    outer loop
      vertex 16.900505113601685 2.7755575615628914e-16 44.9
      vertex 19.32447172999382 0 38.054508501291274
      vertex 19.317037093639374 0 38.02940952181816
    endloop
  endfacet
  facet normal 5.725053877642316e-17 1 -2.0273542289542635e-17
    outer loop
      vertex 16.900505113601685 2.7755575615628914e-16 44.9
      vertex 19.333209800720216 0 38.0791839748621
      vertex 19.32447172999382 0 38.054508501291274
    endloop
  endfacet
  facet normal 5.278753349613352e-17 1 -2.1865312808492082e-17
    outer loop
      vertex 16.900505113601685 2.7755575615628914e-16 44.9
      vertex 19.343227285146714 0 38.10336832106113
      vertex 19.333209800720216 0 38.0791839748621
    endloop
  endfacet
  facet normal 4.8826379606049534e-17 1 -2.3288958945180262e-17
    outer loop
      vertex 16.900505113601685 2.7755575615628914e-16 44.9
      vertex 19.354496735334397 0 38.12699524462223
      vertex 19.343227285146714 0 38.10336832106113
    endloop
  endfacet
  facet normal 4.5267664044615015e-17 1 -2.4578350948774278e-17
    outer loop
      vertex 16.900505113601685 2.7755575615628914e-16 44.9
      vertex 19.366987305879594 0 38.15
      vertex 19.354496735334397 0 38.12699524462223
    endloop
  endfacet
  facet normal 4.2035520638597546e-17 1 -2.575939156415671e-17
    outer loop
      vertex 16.900505113601685 2.7755575615628914e-16 44.9
      vertex 19.380664724111558 0 38.17231952548027
      vertex 19.366987305879594 0 38.15
    endloop
  endfacet
  facet normal 3.907054053352277e-17 1 -2.6852431569611952e-17
    outer loop
      vertex 16.900505113601685 2.7755575615628914e-16 44.9
      vertex 19.395491498708726 0 38.19389262199402
      vertex 19.380664724111558 0 38.17231952548027
    endloop
  endfacet
  facet normal 3.632566647748448e-17 1 -2.7873653421965744e-17
    outer loop
      vertex 16.900505113601685 2.7755575615628914e-16 44.9
      vertex 19.411427009105683 0 38.21466019153595
      vertex 19.395491498708726 0 38.19389262199402
    endloop
  endfacet
  facet normal 3.376285157105436e-17 1 -2.883621153375122e-17
    outer loop
      vertex 16.900505113601685 2.7755575615628914e-16 44.9
      vertex 19.428427594900132 0 38.2345653116703
      vertex 19.411427009105683 0 38.21466019153595
    endloop
  endfacet
  facet normal 3.135093852537282e-17 1 -2.9750949956106354e-17
    outer loop
      vertex 16.900505113601685 2.7755575615628914e-16 44.9
      vertex 19.446446615457536 0 38.253553384542464
      vertex 19.428427594900132 0 38.2345653116703
    endloop
  endfacet
  facet normal 2.906394702101516e-17 1 -3.062698897698625e-17
    outer loop
      vertex 16.900505113601685 2.7755575615628914e-16 44.9
      vertex 19.465434688329697 0 38.27157240509987
      vertex 19.446446615457536 0 38.253553384542464
    endloop
  endfacet
  facet normal 2.6879784169962343e-17 1 -3.147217040387539e-17
    outer loop
      vertex 16.900505113601685 2.7755575615628914e-16 44.9
      vertex 19.48533980846405 0 38.288572990894316
      vertex 19.465434688329697 0 38.27157240509987
    endloop
  endfacet
  facet normal 2.4779512836113365e-17 1 -3.229330239321457e-17
    outer loop
      vertex 16.900505113601685 2.7755575615628914e-16 44.9
      vertex 19.506107378005982 0 38.304508501291274
      vertex 19.48533980846405 0 38.288572990894316
    endloop
  endfacet
  facet normal 2.2746548151110105e-17 1 -3.3096441535723384e-17
    outer loop
      vertex 16.900505113601685 2.7755575615628914e-16 44.9
      vertex 19.52768047451973 0 38.31933527588844
      vertex 19.506107378005982 0 38.304508501291274
    endloop
  endfacet
  facet normal 2.076604197812124e-17 1 -3.388711196765703e-17
    outer loop
      vertex 16.900505113601685 2.7755575615628914e-16 44.9
      vertex 19.55 0 38.333012694120406
      vertex 19.52768047451973 0 38.31933527588844
    endloop
  endfacet
  facet normal 1.8824519954637265e-17 1 -3.467043199455037e-17
    outer loop
      vertex 16.900505113601685 2.7755575615628914e-16 44.9
      vertex 19.57300475537777 0 38.3455032646656
      vertex 19.55 0 38.333012694120406
    endloop
  endfacet
  facet normal 1.6909381944249505e-17 1 -3.545130135086919e-17
    outer loop
      vertex 16.900505113601685 2.7755575615628914e-16 44.9
      vertex 19.596631678938866 0 38.356772714853285
      vertex 19.57300475537777 0 38.3455032646656
    endloop
  endfacet
  facet normal 1.500879486878559e-17 1 -3.623443528166267e-17
    outer loop
      vertex 16.900505113601685 2.7755575615628914e-16 44.9
      vertex 19.620816025137902 0 38.366790199279784
      vertex 19.596631678938866 0 38.356772714853285
    endloop
  endfacet
  facet normal 1.3111134711555133e-17 1 -3.702458679823183e-17
    outer loop
      vertex 16.900505113601685 2.7755575615628914e-16 44.9
      vertex 19.645491498708726 0 38.37552827000618
      vertex 19.620816025137902 0 38.366790199279784
    endloop
  endfacet
  facet normal 1.1204734164468597e-17 1 -3.782665074499626e-17
    outer loop
      vertex 16.900505113601685 2.7755575615628914e-16 44.9
      vertex 19.67059047818184 0 38.382962906360625
      vertex 19.645491498708726 0 38.37552827000618
    endloop
  endfacet
  facet normal 9.278018017821813e-18 1 -3.864560698582196e-17
    outer loop
      vertex 16.900505113601685 2.7755575615628914e-16 44.9
      vertex 19.69604415744543 0 38.38907381296158
      vertex 19.67059047818184 0 38.382962906360625
    endloop
  endfacet
  facet normal 7.31847321820174e-18 1 -3.9486959481324904e-17
    outer loop
      vertex 16.900505113601685 2.7755575615628914e-16 44.9
      vertex 19.72178276926279 0 38.39384418129921
      vertex 19.69604415744543 0 38.38907381296158
    endloop
  endfacet
  facet normal 5.313043633852683e-18 1 -4.035657801398592e-17
    outer loop
      vertex 16.900505113601685 2.7755575615628914e-16 44.9
      vertex 19.747735767811537 0 38.39726095795631
      vertex 19.72178276926279 0 38.39384418129921
    endloop
  endfacet
  facet normal 3.2472813273570292e-18 1 -4.1261074061780567e-17
    outer loop
      vertex 16.900505113601685 2.7755575615628914e-16 44.9
      vertex 19.77383202239871 0 38.39931475520134
      vertex 19.747735767811537 0 38.39726095795631
    endloop
  endfacet
  facet normal 1.1052711237971969e-18 1 -4.2207850489962376e-17
    outer loop
      vertex 16.900505113601685 2.7755575615628914e-16 44.9
      vertex 19.8 0 38.4
      vertex 19.77383202239871 0 38.39931475520134
    endloop
  endfacet
  facet normal 0 0 -1
    outer loop
      vertex 16.900505113601685 2.7755575615628914e-16 44.9
      vertex 16.900505113601685 0.4000000059604645 44.9
      vertex 22.699494886398316 2.7755575615628914e-16 44.9
    endloop
  endfacet
  facet normal 0 0.7071067882110222 -0.7071067741620727
    outer loop
      vertex 16.900505113601685 0.4000000059604645 44.9
      vertex 16.27918462753296 1.899999976158142 46.4
      vertex 22.699494886398316 0.4000000059604645 44.9
    endloop
  endfacet
  facet normal 0 0 -1
    outer loop
      vertex 16.27918462753296 1.899999976158142 46.4
      vertex 16.27918462753296 2.200000047683716 46.4
      vertex 23.32081537246704 1.899999976158142 46.4
    endloop
  endfacet
  facet normal 0 -1 0
    outer loop
      vertex 28.3 2.200000047683716 1.720816040039061
      vertex 11.3 2.200000047683716 0
      vertex 28.3 2.200000047683716 0
    endloop
  endfacet
  facet normal 0 1 0
    outer loop
      vertex 26.8 2.7755575615628914e-16 5.420816802978514
      vertex 28.3 2.7755575615628914e-16 0
      vertex 26.8 2.7755575615628914e-16 0
    endloop
  endfacet
  facet normal 0 1 0
    outer loop
      vertex 26.8 2.7755575615628914e-16 5.420816802978514
      vertex 28.3 2.7755575615628914e-16 3.920816802978514
      vertex 28.3 2.7755575615628914e-16 0
    endloop
  endfacet
  facet normal -1 0 0
    outer loop
      vertex 28.3 2.7755575615628914e-16 3.920816802978514
      vertex 28.3 1 1.720816040039061
      vertex 28.3 2.7755575615628914e-16 0
    endloop
  endfacet
  facet normal -1 0 0
    outer loop
      vertex 28.3 2.7755575615628914e-16 3.920816802978514
      vertex 28.3 1 3.920816802978514
      vertex 28.3 1 1.720816040039061
    endloop
  endfacet
  facet normal -0.7071067811865476 0 -0.7071067811865476
    outer loop
      vertex 26.8 0.4000000059604645 5.420816802978514
      vertex 28.3 1 3.920816802978514
      vertex 28.3 2.7755575615628914e-16 3.920816802978514
    endloop
  endfacet
  facet normal -0.7071067811865476 0 -0.7071067811865476
    outer loop
      vertex 26.8 2.7755575615628914e-16 5.420816802978514
      vertex 26.8 0.4000000059604645 5.420816802978514
      vertex 28.3 2.7755575615628914e-16 3.920816802978514
    endloop
  endfacet
  facet normal -1 0 0
    outer loop
      vertex 28.3 1 1.720816040039061
      vertex 28.3 2.200000047683716 0
      vertex 28.3 2.7755575615628914e-16 0
    endloop
  endfacet
  facet normal -1 0 0
    outer loop
      vertex 28.3 1 1.720816040039061
      vertex 28.3 2.200000047683716 1.720816040039061
      vertex 28.3 2.200000047683716 0
    endloop
  endfacet
  facet normal -0.7071066758194279 0.7071068865536516 0
    outer loop
      vertex 28.3 1 1.720816040039061
      vertex 28.3 1 3.920816802978514
      vertex 29.100000190734864 1.7999999523162842 3.1208137512207017
    endloop
  endfacet
  facet normal -0.7071066758194279 0.7071068865536516 0
    outer loop
      vertex 28.3 1 1.720816040039061
      vertex 29.100000190734864 1.7999999523162842 3.1208137512207017
      vertex 29.100000190734864 1.7999999523162842 2.520815277099608
    endloop
  endfacet
  facet normal -0.707106359717786 0 0.7071072026550578
    outer loop
      vertex 28.3 1 1.720816040039061
      vertex 29.100000190734864 1.7999999523162842 2.520815277099608
      vertex 28.3 2.200000047683716 1.720816040039061
    endloop
  endfacet
  facet normal -0.7071063597177861 0 0.7071072026550578
    outer loop
      vertex 29.100000190734864 1.7999999523162842 2.520815277099608
      vertex 29.100000190734864 2.200000047683716 2.520815277099608
      vertex 28.3 2.200000047683716 1.720816040039061
    endloop
  endfacet
  facet normal -1 0 0
    outer loop
      vertex 29.100000190734864 1.7999999523162842 2.520815277099608
      vertex 29.100000190734864 1.7999999523162842 3.1208137512207017
      vertex 29.100000190734864 2.200000047683716 3.1208137512207017
    endloop
  endfacet
  facet normal -1 0 0
    outer loop
      vertex 29.100000190734864 1.7999999523162842 2.520815277099608
      vertex 29.100000190734864 2.200000047683716 3.1208137512207017
      vertex 29.100000190734864 2.200000047683716 2.520815277099608
    endloop
  endfacet
  facet normal -0.7071067811865476 0 -0.7071067811865476
    outer loop
      vertex 26.8 0.4000000059604645 5.420816802978514
      vertex 28.3 1.899999976158142 3.920816802978514
      vertex 28.3 1 3.920816802978514
    endloop
  endfacet
  facet normal -0.7071080455883101 0 -0.7071055167825242
    outer loop
      vertex 28.3 1 3.920816802978514
      vertex 28.3 1.899999976158142 3.920816802978514
      vertex 29.100000190734864 1.7999999523162842 3.1208137512207017
    endloop
  endfacet
  facet normal -0.70710804558831 0 -0.7071055167825241
    outer loop
      vertex 28.3 1.899999976158142 3.920816802978514
      vertex 28.3 2.200000047683716 3.920816802978514
      vertex 29.100000190734864 2.200000047683716 3.1208137512207017
    endloop
  endfacet
  facet normal -0.70710804558831 0 -0.7071055167825241
    outer loop
      vertex 28.3 1.899999976158142 3.920816802978514
      vertex 29.100000190734864 2.200000047683716 3.1208137512207017
      vertex 29.100000190734864 1.7999999523162842 3.1208137512207017
    endloop
  endfacet
  facet normal -1 0 0
    outer loop
      vertex 26.8 2.7755575615628914e-16 5.420816802978514
      vertex 26.8 0.4000000059604645 20.379185104370116
      vertex 26.8 0.4000000059604645 5.420816802978514
    endloop
  endfacet
  facet normal -0.7071067741620727 0.7071067882110224 0
    outer loop
      vertex 26.8 0.4000000059604645 5.420816802978514
      vertex 28.3 1.899999976158142 21.879185104370116
      vertex 28.3 1.899999976158142 3.920816802978514
    endloop
  endfacet
  facet normal -1 0 0
    outer loop
      vertex 28.3 1.899999976158142 3.920816802978514
      vertex 28.3 2.200000047683716 21.879185104370116
      vertex 28.3 2.200000047683716 3.920816802978514
    endloop
  endfacet
  facet normal 0 -1 0
    outer loop
      vertex 28.3 2.200000047683716 1.720816040039061
      vertex 29.100000190734864 2.200000047683716 2.520815277099608
      vertex 29.100000190734864 2.200000047683716 3.1208137512207017
    endloop
  endfacet
  facet normal 0 -1 0
    outer loop
      vertex 28.3 2.200000047683716 1.720816040039061
      vertex 29.100000190734864 2.200000047683716 3.1208137512207017
      vertex 28.3 2.200000047683716 3.920816802978514
    endloop
  endfacet
  facet normal -1.0555156412053778e-14 1 -1.9681427574390415e-15
    outer loop
      vertex 19.82616797760129 2.7755575615628914e-16 37.40068524479866
      vertex 26.8 2.7755575615628914e-16 0
      vertex 19.8 0 37.4
    endloop
  endfacet
  facet normal 0 1 0
    outer loop
      vertex 19.82616797760129 2.7755575615628914e-16 37.40068524479866
      vertex 19.852264232188464 2.7755575615628914e-16 37.402739042043684
      vertex 26.8 2.7755575615628914e-16 0
    endloop
  endfacet
  facet normal 0 1 0
    outer loop
      vertex 19.852264232188464 2.7755575615628914e-16 37.402739042043684
      vertex 19.87821723073721 2.7755575615628914e-16 37.40615581870079
      vertex 26.8 2.7755575615628914e-16 0
    endloop
  endfacet
  facet normal 1.0426062708373498e-14 1 1.9292798104100816e-15
    outer loop
      vertex 19.87821723073721 2.7755575615628914e-16 37.40615581870079
      vertex 19.90395584255457 0 37.41092618703842
      vertex 26.8 2.7755575615628914e-16 0
    endloop
  endfacet
  facet normal -1.0443937958331692e-14 1 -1.9177365784377834e-15
    outer loop
      vertex 19.90395584255457 0 37.41092618703842
      vertex 19.92940952181816 2.7755575615628914e-16 37.41703709363937
      vertex 26.8 2.7755575615628914e-16 0
    endloop
  endfacet
  facet normal 0 1 0
    outer loop
      vertex 19.92940952181816 2.7755575615628914e-16 37.41703709363937
      vertex 19.954508501291276 2.7755575615628914e-16 37.42447172999382
      vertex 26.8 2.7755575615628914e-16 0
    endloop
  endfacet
  facet normal 0 1 0
    outer loop
      vertex 19.954508501291276 2.7755575615628914e-16 37.42447172999382
      vertex 19.9791839748621 2.7755575615628914e-16 37.43320980072021
      vertex 26.8 2.7755575615628914e-16 0
    endloop
  endfacet
  facet normal 0 1 0
    outer loop
      vertex 19.9791839748621 2.7755575615628914e-16 37.43320980072021
      vertex 20.003368321061135 2.7755575615628914e-16 37.44322728514671
      vertex 26.8 2.7755575615628914e-16 0
    endloop
  endfacet
  facet normal 9.13012355777267e-18 1 9.13012355777267e-18
    outer loop
      vertex 19.3 0 37.9
      vertex 19.8 0 37.4
      vertex 26.8 2.7755575615628914e-16 0
    endloop
  endfacet
  facet normal 0 1 0
    outer loop
      vertex 20.003368321061135 2.7755575615628914e-16 37.44322728514671
      vertex 20.02699524462223 2.7755575615628914e-16 37.454496735334395
      vertex 26.8 2.7755575615628914e-16 0
    endloop
  endfacet
  facet normal 0 1 0
    outer loop
      vertex 20.02699524462223 2.7755575615628914e-16 37.454496735334395
      vertex 20.05 2.7755575615628914e-16 37.46698730587959
      vertex 26.8 2.7755575615628914e-16 0
    endloop
  endfacet
  facet normal 0 1 0
    outer loop
      vertex 20.05 2.7755575615628914e-16 37.46698730587959
      vertex 20.07231952548027 2.7755575615628914e-16 37.480664724111556
      vertex 26.8 2.7755575615628914e-16 0
    endloop
  endfacet
  facet normal 0 1 0
    outer loop
      vertex 20.07231952548027 2.7755575615628914e-16 37.480664724111556
      vertex 20.09389262199402 2.7755575615628914e-16 37.495491498708724
      vertex 26.8 2.7755575615628914e-16 0
    endloop
  endfacet
  facet normal 0 1 0
    outer loop
      vertex 20.09389262199402 2.7755575615628914e-16 37.495491498708724
      vertex 20.11466019153595 2.7755575615628914e-16 37.51142700910568
      vertex 26.8 2.7755575615628914e-16 0
    endloop
  endfacet
  facet normal 0 1 0
    outer loop
      vertex 20.11466019153595 2.7755575615628914e-16 37.51142700910568
      vertex 20.134565311670304 2.7755575615628914e-16 37.52842759490013
      vertex 26.8 2.7755575615628914e-16 0
    endloop
  endfacet
  facet normal 0 1 0
    outer loop
      vertex 20.153553384542466 2.7755575615628914e-16 37.54644661545753
      vertex 20.17157240509987 2.7755575615628914e-16 37.565434688329695
      vertex 26.8 2.7755575615628914e-16 0
    endloop
  endfacet
  facet normal 0 1 0
    outer loop
      vertex 20.134565311670304 2.7755575615628914e-16 37.52842759490013
      vertex 20.153553384542466 2.7755575615628914e-16 37.54644661545753
      vertex 26.8 2.7755575615628914e-16 0
    endloop
  endfacet
  facet normal 0 1 0
    outer loop
      vertex 20.17157240509987 2.7755575615628914e-16 37.565434688329695
      vertex 20.18857299089432 2.7755575615628914e-16 37.58533980846405
      vertex 26.8 2.7755575615628914e-16 0
    endloop
  endfacet
  facet normal 0 1 0
    outer loop
      vertex 20.18857299089432 2.7755575615628914e-16 37.58533980846405
      vertex 20.204508501291276 2.7755575615628914e-16 37.60610737800598
      vertex 26.8 2.7755575615628914e-16 0
    endloop
  endfacet
  facet normal 1.4914061379019446e-14 1 2.6156805874056568e-15
    outer loop
      vertex 20.204508501291276 2.7755575615628914e-16 37.60610737800598
      vertex 20.219335275888444 0 37.62768047451973
      vertex 26.8 2.7755575615628914e-16 0
    endloop
  endfacet
  facet normal -1.57967502387223e-14 1 -2.7553003530369125e-15
    outer loop
      vertex 20.233012694120408 2.7755575615628914e-16 37.65
      vertex 26.8 2.7755575615628914e-16 0
      vertex 20.219335275888444 0 37.62768047451973
    endloop
  endfacet
  facet normal 0 1 0
    outer loop
      vertex 20.233012694120408 2.7755575615628914e-16 37.65
      vertex 20.245503264665604 2.7755575615628914e-16 37.67300475537777
      vertex 26.8 2.7755575615628914e-16 0
    endloop
  endfacet
  facet normal 1.8046356507694495e-14 1 3.1397756983395175e-15
    outer loop
      vertex 20.245503264665604 2.7755575615628914e-16 37.67300475537777
      vertex 20.256772714853287 0 37.696631678938864
      vertex 26.8 2.7755575615628914e-16 0
    endloop
  endfacet
  facet normal 0 1 0
    outer loop
      vertex 20.266790199279786 2.7755575615628914e-16 37.7208160251379
      vertex 20.27552827000618 2.7755575615628914e-16 37.745491498708724
      vertex 26.8 2.7755575615628914e-16 0
    endloop
  endfacet
  facet normal -1.9537662683432522e-14 1 -3.3839047713470115e-15
    outer loop
      vertex 20.266790199279786 2.7755575615628914e-16 37.7208160251379
      vertex 26.8 2.7755575615628914e-16 0
      vertex 20.256772714853287 0 37.696631678938864
    endloop
  endfacet
  facet normal 2.3575410818329172e-14 1 4.0751118954813784e-15
    outer loop
      vertex 20.27552827000618 2.7755575615628914e-16 37.745491498708724
      vertex 20.282962906360627 0 37.77059047818184
      vertex 26.8 2.7755575615628914e-16 0
    endloop
  endfacet
  facet normal -2.644476581142929e-14 1 -4.55550103377196e-15
    outer loop
      vertex 20.282962906360627 0 37.77059047818184
      vertex 20.28907381296158 2.7755575615628914e-16 37.79604415744543
      vertex 26.8 2.7755575615628914e-16 0
    endloop
  endfacet
  facet normal 0 1 0
    outer loop
      vertex 20.28907381296158 2.7755575615628914e-16 37.79604415744543
      vertex 20.29384418129921 2.7755575615628914e-16 37.82178276926279
      vertex 26.8 2.7755575615628914e-16 0
    endloop
  endfacet
  facet normal 0 1 0
    outer loop
      vertex 20.29384418129921 2.7755575615628914e-16 37.82178276926279
      vertex 20.297260957956315 2.7755575615628914e-16 37.847735767811535
      vertex 26.8 2.7755575615628914e-16 0
    endloop
  endfacet
  facet normal 0 -1 0
    outer loop
      vertex 23.32081537246704 2.200000047683716 46.4
      vertex 11.3 2.200000047683716 0
      vertex 28.3 2.200000047683716 1.720816040039061
    endloop
  endfacet
  facet normal -1 0 0
    outer loop
      vertex 26.8 2.7755575615628914e-16 5.420816802978514
      vertex 26.8 2.7755575615628914e-16 20.379185104370116
      vertex 26.8 0.4000000059604645 20.379185104370116
    endloop
  endfacet
  facet normal 0 1 0
    outer loop
      vertex 22.699494886398316 2.7755575615628914e-16 44.9
      vertex 26.8 2.7755575615628914e-16 5.420816802978514
      vertex 26.8 2.7755575615628914e-16 0
    endloop
  endfacet
  facet normal -0.7071067741620727 0.7071067882110224 0
    outer loop
      vertex 26.8 0.4000000059604645 5.420816802978514
      vertex 26.8 0.4000000059604645 20.379185104370116
      vertex 28.3 1.899999976158142 21.879185104370116
    endloop
  endfacet
  facet normal -1 0 0
    outer loop
      vertex 28.3 1.899999976158142 3.920816802978514
      vertex 28.3 1.899999976158142 21.879185104370116
      vertex 28.3 2.200000047683716 21.879185104370116
    endloop
  endfacet
  facet normal 0 1 0
    outer loop
      vertex 22.699494886398316 2.7755575615628914e-16 44.9
      vertex 26.8 2.7755575615628914e-16 20.379185104370116
      vertex 26.8 2.7755575615628914e-16 5.420816802978514
    endloop
  endfacet
  facet normal -0.7071067811865476 0 0.7071067811865476
    outer loop
      vertex 26.8 2.7755575615628914e-16 20.379185104370116
      vertex 28.3 2.7755575615628914e-16 21.879185104370116
      vertex 26.8 0.4000000059604645 20.379185104370116
    endloop
  endfacet
  facet normal -0.7071067811865476 0 0.7071067811865476
    outer loop
      vertex 26.8 0.4000000059604645 20.379185104370116
      vertex 28.3 2.7755575615628914e-16 21.879185104370116
      vertex 28.3 1 21.879185104370116
    endloop
  endfacet
  facet normal -1 0 0
    outer loop
      vertex 28.3 2.7755575615628914e-16 21.879185104370116
      vertex 28.3 1 24.079184913635252
      vertex 28.3 1 21.879185104370116
    endloop
  endfacet
  facet normal 0 1 0
    outer loop
      vertex 26.8 2.7755575615628914e-16 20.379185104370116
      vertex 26.8 2.7755575615628914e-16 30.42081537246704
      vertex 28.3 2.7755575615628914e-16 21.879185104370116
    endloop
  endfacet
  facet normal -1 0 0
    outer loop
      vertex 28.3 2.7755575615628914e-16 21.879185104370116
      vertex 28.3 2.7755575615628914e-16 28.92081489562988
      vertex 28.3 1 26.720815086364745
    endloop
  endfacet
  facet normal -1 0 0
    outer loop
      vertex 28.3 2.7755575615628914e-16 21.879185104370116
      vertex 28.3 1 26.720815086364745
      vertex 28.3 1 24.079184913635252
    endloop
  endfacet
  facet normal -0.7071067811865476 0 0.7071067811865476
    outer loop
      vertex 26.8 0.4000000059604645 20.379185104370116
      vertex 28.3 1 21.879185104370116
      vertex 28.3 1.899999976158142 21.879185104370116
    endloop
  endfacet
  facet normal -0.7071063597177861 0 0.7071072026550578
    outer loop
      vertex 28.3 1 21.879185104370116
      vertex 29.100000190734864 1.7999999523162842 22.679184341430663
      vertex 28.3 1.899999976158142 21.879185104370116
    endloop
  endfacet
  facet normal -0.7071066758194279 0.7071068865536515 0
    outer loop
      vertex 28.3 1 21.879185104370116
      vertex 29.100000190734864 1.7999999523162842 23.27918472290039
      vertex 29.100000190734864 1.7999999523162842 22.679184341430663
    endloop
  endfacet
  facet normal -0.707106359717786 0 0.7071072026550577
    outer loop
      vertex 28.3 1.899999976158142 21.879185104370116
      vertex 29.100000190734864 2.200000047683716 22.679184341430663
      vertex 28.3 2.200000047683716 21.879185104370116
    endloop
  endfacet
  facet normal -0.7071063597177861 0 0.7071072026550578
    outer loop
      vertex 28.3 1.899999976158142 21.879185104370116
      vertex 29.100000190734864 1.7999999523162842 22.679184341430663
      vertex 29.100000190734864 2.200000047683716 22.679184341430663
    endloop
  endfacet
  facet normal -1 0 0
    outer loop
      vertex 29.100000190734864 1.7999999523162842 22.679184341430663
      vertex 29.100000190734864 2.200000047683716 23.27918472290039
      vertex 29.100000190734864 2.200000047683716 22.679184341430663
    endloop
  endfacet
  facet normal -1 0 0
    outer loop
      vertex 28.3 1 24.079184913635252
      vertex 28.3 1 26.720815086364745
      vertex 28.3 2.200000047683716 26.720815086364745
    endloop
  endfacet
  facet normal -1 0 0
    outer loop
      vertex 28.3 1 24.079184913635252
      vertex 28.3 2.200000047683716 26.720815086364745
      vertex 28.3 2.200000047683716 24.079184913635252
    endloop
  endfacet
  facet normal -0.7071066758194279 0.7071068865536515 0
    outer loop
      vertex 28.3 1 21.879185104370116
      vertex 28.3 1 24.079184913635252
      vertex 29.100000190734864 1.7999999523162842 23.27918472290039
    endloop
  endfacet
  facet normal -0.7071067811865476 0 -0.7071067811865476
    outer loop
      vertex 28.3 1 24.079184913635252
      vertex 28.3 2.200000047683716 24.079184913635252
      vertex 29.100000190734864 1.7999999523162842 23.27918472290039
    endloop
  endfacet
  facet normal -0.7071067811865476 0 -0.7071067811865476
    outer loop
      vertex 29.100000190734864 1.7999999523162842 23.27918472290039
      vertex 28.3 2.200000047683716 24.079184913635252
      vertex 29.100000190734864 2.200000047683716 23.27918472290039
    endloop
  endfacet
  facet normal -1 0 0
    outer loop
      vertex 29.100000190734864 1.7999999523162842 22.679184341430663
      vertex 29.100000190734864 1.7999999523162842 23.27918472290039
      vertex 29.100000190734864 2.200000047683716 23.27918472290039
    endloop
  endfacet
  facet normal 0 -1 0
    outer loop
      vertex 23.32081537246704 2.200000047683716 46.4
      vertex 28.3 2.200000047683716 1.720816040039061
      vertex 28.3 2.200000047683716 3.920816802978514
    endloop
  endfacet
  facet normal 0 -1 0
    outer loop
      vertex 23.32081537246704 2.200000047683716 46.4
      vertex 28.3 2.200000047683716 3.920816802978514
      vertex 28.3 2.200000047683716 21.879185104370116
    endloop
  endfacet
  facet normal 0 -1 0
    outer loop
      vertex 28.3 2.200000047683716 21.879185104370116
      vertex 29.100000190734864 2.200000047683716 22.679184341430663
      vertex 29.100000190734864 2.200000047683716 23.27918472290039
    endloop
  endfacet
  facet normal 0 -1 0
    outer loop
      vertex 28.3 2.200000047683716 21.879185104370116
      vertex 29.100000190734864 2.200000047683716 23.27918472290039
      vertex 28.3 2.200000047683716 24.079184913635252
    endloop
  endfacet
  facet normal 3.241929208954948e-16 1 7.147764281985489e-17
    outer loop
      vertex 16.900505113601685 2.7755575615628914e-16 44.9
      vertex 19.3 0 37.9
      vertex 26.8 2.7755575615628914e-16 0
    endloop
  endfacet
  facet normal 0 1 0
    outer loop
      vertex 20.297260957956315 2.7755575615628914e-16 37.847735767811535
      vertex 22.699494886398316 2.7755575615628914e-16 44.9
      vertex 26.8 2.7755575615628914e-16 0
    endloop
  endfacet
  facet normal 0 1 0
    outer loop
      vertex 22.699494886398316 2.7755575615628914e-16 44.9
      vertex 26.8 2.7755575615628914e-16 30.42081537246704
      vertex 26.8 2.7755575615628914e-16 20.379185104370116
    endloop
  endfacet
  facet normal 0 1 0
    outer loop
      vertex 26.8 2.7755575615628914e-16 30.42081537246704
      vertex 28.3 2.7755575615628914e-16 28.92081489562988
      vertex 28.3 2.7755575615628914e-16 21.879185104370116
    endloop
  endfacet
  facet normal -0.7071068935781168 0 -0.7071066687949604
    outer loop
      vertex 26.8 0.4000000059604645 30.42081537246704
      vertex 28.3 1 28.92081489562988
      vertex 28.3 2.7755575615628914e-16 28.92081489562988
    endloop
  endfacet
  facet normal -1 0 0
    outer loop
      vertex 28.3 2.7755575615628914e-16 28.92081489562988
      vertex 28.3 1 28.92081489562988
      vertex 28.3 1 26.720815086364745
    endloop
  endfacet
  facet normal -0.7071068935781167 0 -0.7071066687949604
    outer loop
      vertex 26.8 2.7755575615628914e-16 30.42081537246704
      vertex 26.8 0.4000000059604645 30.42081537246704
      vertex 28.3 2.7755575615628914e-16 28.92081489562988
    endloop
  endfacet
  facet normal -0.7071068935781167 0 -0.7071066687949604
    outer loop
      vertex 26.8 0.4000000059604645 30.42081537246704
      vertex 28.3 1.899999976158142 28.92081489562988
      vertex 28.3 1 28.92081489562988
    endloop
  endfacet
  facet normal -0.7071066758194279 0.7071068865536515 0
    outer loop
      vertex 28.3 1 26.720815086364745
      vertex 29.100000190734864 1.7999999523162842 28.120815658569335
      vertex 29.100000190734864 1.7999999523162842 27.520815277099608
    endloop
  endfacet
  facet normal -0.7071066758194279 0.7071068865536515 0
    outer loop
      vertex 28.3 1 26.720815086364745
      vertex 28.3 1 28.92081489562988
      vertex 29.100000190734864 1.7999999523162842 28.120815658569335
    endloop
  endfacet
  facet normal -0.7071063597177861 0 -0.7071072026550578
    outer loop
      vertex 28.3 1 28.92081489562988
      vertex 28.3 1.899999976158142 28.92081489562988
      vertex 29.100000190734864 1.7999999523162842 28.120815658569335
    endloop
  endfacet
  facet normal -0.7071067811865476 0 0.7071067811865476
    outer loop
      vertex 28.3 1 26.720815086364745
      vertex 29.100000190734864 1.7999999523162842 27.520815277099608
      vertex 28.3 2.200000047683716 26.720815086364745
    endloop
  endfacet
  facet normal -0.7071067811865476 0 0.7071067811865476
    outer loop
      vertex 29.100000190734864 1.7999999523162842 27.520815277099608
      vertex 29.100000190734864 2.200000047683716 27.520815277099608
      vertex 28.3 2.200000047683716 26.720815086364745
    endloop
  endfacet
  facet normal -1 0 0
    outer loop
      vertex 29.100000190734864 1.7999999523162842 27.520815277099608
      vertex 29.100000190734864 2.200000047683716 28.120815658569335
      vertex 29.100000190734864 2.200000047683716 27.520815277099608
    endloop
  endfacet
  facet normal -0.707106359717786 0 -0.7071072026550577
    outer loop
      vertex 28.3 1.899999976158142 28.92081489562988
      vertex 28.3 2.200000047683716 28.92081489562988
      vertex 29.100000190734864 2.200000047683716 28.120815658569335
    endloop
  endfacet
  facet normal -0.7071063597177861 0 -0.7071072026550578
    outer loop
      vertex 28.3 1.899999976158142 28.92081489562988
      vertex 29.100000190734864 2.200000047683716 28.120815658569335
      vertex 29.100000190734864 1.7999999523162842 28.120815658569335
    endloop
  endfacet
  facet normal -1 0 0
    outer loop
      vertex 29.100000190734864 1.7999999523162842 27.520815277099608
      vertex 29.100000190734864 1.7999999523162842 28.120815658569335
      vertex 29.100000190734864 2.200000047683716 28.120815658569335
    endloop
  endfacet
  facet normal -1 0 0
    outer loop
      vertex 26.8 2.7755575615628914e-16 30.42081537246704
      vertex 26.8 0.4000000059604645 40.799494886398314
      vertex 26.8 0.4000000059604645 30.42081537246704
    endloop
  endfacet
  facet normal 0 1 0
    outer loop
      vertex 22.699494886398316 2.7755575615628914e-16 44.9
      vertex 26.8 2.7755575615628914e-16 40.799494886398314
      vertex 26.8 2.7755575615628914e-16 30.42081537246704
    endloop
  endfacet
  facet normal -1 0 0
    outer loop
      vertex 26.8 2.7755575615628914e-16 30.42081537246704
      vertex 26.8 2.7755575615628914e-16 40.799494886398314
      vertex 26.8 0.4000000059604645 40.799494886398314
    endloop
  endfacet
  facet normal -0.7071067741620728 0.7071067882110224 0
    outer loop
      vertex 26.8 0.4000000059604645 30.42081537246704
      vertex 26.8 0.4000000059604645 40.799494886398314
      vertex 28.3 1.899999976158142 41.42081537246704
    endloop
  endfacet
  facet normal -0.7071067741620727 0.7071067882110224 0
    outer loop
      vertex 26.8 0.4000000059604645 30.42081537246704
      vertex 28.3 1.899999976158142 41.42081537246704
      vertex 28.3 1.899999976158142 28.92081489562988
    endloop
  endfacet
  facet normal -1 0 0
    outer loop
      vertex 28.3 1.899999976158142 28.92081489562988
      vertex 28.3 2.200000047683716 41.42081537246704
      vertex 28.3 2.200000047683716 28.92081489562988
    endloop
  endfacet
  facet normal -1 0 0
    outer loop
      vertex 28.3 1.899999976158142 28.92081489562988
      vertex 28.3 1.899999976158142 41.42081537246704
      vertex 28.3 2.200000047683716 41.42081537246704
    endloop
  endfacet
  facet normal 0 -1 0
    outer loop
      vertex 23.32081537246704 2.200000047683716 46.4
      vertex 28.3 2.200000047683716 21.879185104370116
      vertex 28.3 2.200000047683716 24.079184913635252
    endloop
  endfacet
  facet normal 0 -1 0
    outer loop
      vertex 23.32081537246704 2.200000047683716 46.4
      vertex 28.3 2.200000047683716 24.079184913635252
      vertex 28.3 2.200000047683716 26.720815086364745
    endloop
  endfacet
  facet normal 0 -1 0
    outer loop
      vertex 28.3 2.200000047683716 26.720815086364745
      vertex 29.100000190734864 2.200000047683716 27.520815277099608
      vertex 29.100000190734864 2.200000047683716 28.120815658569335
    endloop
  endfacet
  facet normal 0 -1 0
    outer loop
      vertex 28.3 2.200000047683716 26.720815086364745
      vertex 29.100000190734864 2.200000047683716 28.120815658569335
      vertex 28.3 2.200000047683716 28.92081489562988
    endloop
  endfacet
  facet normal 0 -1 0
    outer loop
      vertex 23.32081537246704 2.200000047683716 46.4
      vertex 28.3 2.200000047683716 26.720815086364745
      vertex 28.3 2.200000047683716 28.92081489562988
    endloop
  endfacet
  facet normal 0 -1 0
    outer loop
      vertex 23.32081537246704 2.200000047683716 46.4
      vertex 28.3 2.200000047683716 28.92081489562988
      vertex 28.3 2.200000047683716 41.42081537246704
    endloop
  endfacet
  facet normal -2.952879484597949e-17 1 -2.952879484597949e-17
    outer loop
      vertex 22.699494886398316 2.7755575615628914e-16 44.9
      vertex 20.3 0 37.9
      vertex 19.8 0 38.4
    endloop
  endfacet
  facet normal 0 1 0
    outer loop
      vertex 20.297260957956315 2.7755575615628914e-16 37.847735767811535
      vertex 20.29931475520134 2.7755575615628914e-16 37.87383202239871
      vertex 22.699494886398316 2.7755575615628914e-16 44.9
    endloop
  endfacet
  facet normal -3.362726779180509e-14 1 1.1487271621975256e-14
    outer loop
      vertex 20.29931475520134 2.7755575615628914e-16 37.87383202239871
      vertex 20.3 0 37.9
      vertex 22.699494886398316 2.7755575615628914e-16 44.9
    endloop
  endfacet
  facet normal 0 1 -4.2700885562506023e-17
    outer loop
      vertex 16.900505113601685 2.7755575615628914e-16 44.9
      vertex 22.699494886398316 2.7755575615628914e-16 44.9
      vertex 19.8 0 38.4
    endloop
  endfacet
  facet normal 0 0 -1
    outer loop
      vertex 16.900505113601685 0.4000000059604645 44.9
      vertex 22.699494886398316 0.4000000059604645 44.9
      vertex 22.699494886398316 2.7755575615628914e-16 44.9
    endloop
  endfacet
  facet normal -0.7071067811865476 0 -0.7071067811865476
    outer loop
      vertex 22.699494886398316 2.7755575615628914e-16 44.9
      vertex 22.699494886398316 0.4000000059604645 44.9
      vertex 26.8 2.7755575615628914e-16 40.799494886398314
    endloop
  endfacet
  facet normal -0.49999997823808984 0.7071068119625348 -0.49999997823808984
    outer loop
      vertex 22.699494886398316 0.4000000059604645 44.9
      vertex 23.32081537246704 1.899999976158142 46.4
      vertex 26.8 0.4000000059604645 40.799494886398314
    endloop
  endfacet
  facet normal 0 0.7071067882110222 -0.7071067741620727
    outer loop
      vertex 16.27918462753296 1.899999976158142 46.4
      vertex 23.32081537246704 1.899999976158142 46.4
      vertex 22.699494886398316 0.4000000059604645 44.9
    endloop
  endfacet
  facet normal 0 0 -1
    outer loop
      vertex 16.27918462753296 2.200000047683716 46.4
      vertex 23.32081537246704 2.200000047683716 46.4
      vertex 23.32081537246704 1.899999976158142 46.4
    endloop
  endfacet
  facet normal -0.7071067811865476 0 -0.7071067811865476
    outer loop
      vertex 22.699494886398316 0.4000000059604645 44.9
      vertex 26.8 0.4000000059604645 40.799494886398314
      vertex 26.8 2.7755575615628914e-16 40.799494886398314
    endloop
  endfacet
  facet normal -0.7071067811865475 0 -0.7071067811865475
    outer loop
      vertex 23.32081537246704 1.899999976158142 46.4
      vertex 23.32081537246704 2.200000047683716 46.4
      vertex 28.3 1.899999976158142 41.42081537246704
    endloop
  endfacet
  facet normal -0.49999997823808984 0.7071068119625348 -0.49999997823808984
    outer loop
      vertex 23.32081537246704 1.899999976158142 46.4
      vertex 28.3 1.899999976158142 41.42081537246704
      vertex 26.8 0.4000000059604645 40.799494886398314
    endloop
  endfacet
  facet normal -0.7071067811865475 0 -0.7071067811865475
    outer loop
      vertex 23.32081537246704 2.200000047683716 46.4
      vertex 28.3 2.200000047683716 41.42081537246704
      vertex 28.3 1.899999976158142 41.42081537246704
    endloop
  endfacet
  facet normal 1 0 0
    outer loop
      vertex 0.8 3.8 1.4
      vertex 0.8 15.8 52.4
      vertex 0.8 3.8 52.4
    endloop
  endfacet
  facet normal 0 1 0
    outer loop
      vertex 0.8 3.8 1.4
      vertex 0.8 3.8 52.4
      vertex 38.8 3.8 52.4
    endloop
  endfacet
  facet normal 1 0 0
    outer loop
      vertex 0.8 3.8 1.4
      vertex 0.8 15.8 1.4
      vertex 0.8 15.8 52.4
    endloop
  endfacet
  facet normal 0 0 1
    outer loop
      vertex 0.8 3.8 1.4
      vertex 38.8 15.8 1.4
      vertex 0.8 15.8 1.4
    endloop
  endfacet
  facet normal 0 -1 0
    outer loop
      vertex 0.8 15.8 1.4
      vertex 38.8 15.8 1.4
      vertex 3.8 15.8 36.4
    endloop
  endfacet
  facet normal 0 -1 0
    outer loop
      vertex 0.8 15.8 1.4
      vertex 3.8 15.8 36.4
      vertex 0.8 15.8 52.4
    endloop
  endfacet
  facet normal 0 -1 0
    outer loop
      vertex 3.8 15.8 36.4
      vertex 3.8 15.8 52.4
      vertex 0.8 15.8 52.4
    endloop
  endfacet
  facet normal 0 1 0
    outer loop
      vertex 0.8 3.8 1.4
      vertex 38.8 3.8 52.4
      vertex 38.8 3.8 1.4
    endloop
  endfacet
  facet normal 0 0 1
    outer loop
      vertex 0.8 3.8 1.4
      vertex 38.8 3.8 1.4
      vertex 38.8 15.8 1.4
    endloop
  endfacet
  facet normal -1 0 0
    outer loop
      vertex 38.8 3.8 1.4
      vertex 38.8 3.8 52.4
      vertex 38.8 15.8 1.4
    endloop
  endfacet
  facet normal 0 -1 0
    outer loop
      vertex 3.8 15.8 36.4
      vertex 38.8 15.8 1.4
      vertex 35.8 15.8 36.4
    endloop
  endfacet
  facet normal -1 0 0
    outer loop
      vertex 38.8 15.8 1.4
      vertex 38.8 3.8 52.4
      vertex 38.8 15.8 52.4
    endloop
  endfacet
  facet normal 0 -1 0
    outer loop
      vertex 38.8 15.8 1.4
      vertex 38.8 15.8 52.4
      vertex 35.8 15.8 36.4
    endloop
  endfacet
  facet normal 0 -1 0
    outer loop
      vertex 35.8 15.8 36.4
      vertex 38.8 15.8 52.4
      vertex 35.8 15.8 52.4
    endloop
  endfacet
  facet normal 1 0 0
    outer loop
      vertex 3.8 15.8 36.4
      vertex 3.8 17 36.4
      vertex 3.8 17 52.4
    endloop
  endfacet
  facet normal 1 0 0
    outer loop
      vertex 3.8 15.8 36.4
      vertex 3.8 17 52.4
      vertex 3.8 15.8 52.4
    endloop
  endfacet
  facet normal 0 0 1
    outer loop
      vertex 3.8 15.8 36.4
      vertex 35.8 17 36.4
      vertex 3.8 17 36.4
    endloop
  endfacet
  facet normal 0 0 1
    outer loop
      vertex 3.8 15.8 36.4
      vertex 35.8 15.8 36.4
      vertex 35.8 17 36.4
    endloop
  endfacet
  facet normal -1 0 0
    outer loop
      vertex 35.8 15.8 36.4
      vertex 35.8 15.8 52.4
      vertex 35.8 17 36.4
    endloop
  endfacet
  facet normal -1 0 0
    outer loop
      vertex 35.8 17 52.4
      vertex 35.8 17 36.4
      vertex 35.8 15.8 52.4
    endloop
  endfacet
  facet normal 0 0 -1
    outer loop
      vertex 0 0 0
      vertex 11.3 2.200000047683716 0
      vertex 11.3 2.7755575615628914e-16 0
    endloop
  endfacet
  facet normal 1.0755806814582624e-14 -1 -5.694250666543742e-15
    outer loop
      vertex 0 0 0
      vertex 19.82616797760129 2.7755575615628914e-16 37.40068524479866
      vertex 19.8 0 37.4
    endloop
  endfacet
  facet normal -6.094771016497089e-19 -1 7.744225798440152e-18
    outer loop
      vertex 0 0 0
      vertex 19.852264232188464 2.7755575615628914e-16 37.402739042043684
      vertex 19.82616797760129 2.7755575615628914e-16 37.40068524479866
    endloop
  endfacet
  facet normal -1.0503537843259105e-18 -1 7.978230061829904e-18
    outer loop
      vertex 0 0 0
      vertex 19.87821723073721 2.7755575615628914e-16 37.40615581870079
      vertex 19.852264232188464 2.7755575615628914e-16 37.402739042043684
    endloop
  endfacet
  facet normal -1.196329841248941e-14 -1 6.364904256660494e-15
    outer loop
      vertex 0 0 0
      vertex 19.90395584255457 0 37.41092618703842
      vertex 19.87821723073721 2.7755575615628914e-16 37.40615581870079
    endloop
  endfacet
  facet normal 1.2501127652065564e-14 -1 -6.651048721030033e-15
    outer loop
      vertex 0 0 0
      vertex 19.92940952181816 2.7755575615628914e-16 37.41703709363937
      vertex 19.90395584255457 0 37.41092618703842
    endloop
  endfacet
  facet normal -2.6088830214333025e-18 -1 8.807465258679108e-18
    outer loop
      vertex 0 0 0
      vertex 19.954508501291276 2.7755575615628914e-16 37.42447172999382
      vertex 19.92940952181816 2.7755575615628914e-16 37.41703709363937
    endloop
  endfacet
  facet normal -3.2376094342074767e-18 -1 9.142698488936113e-18
    outer loop
      vertex 0 0 0
      vertex 19.9791839748621 2.7755575615628914e-16 37.43320980072021
      vertex 19.954508501291276 2.7755575615628914e-16 37.42447172999382
    endloop
  endfacet
  facet normal -3.942969119269755e-18 -1 9.519169301653499e-18
    outer loop
      vertex 0 0 0
      vertex 20.003368321061135 2.7755575615628914e-16 37.44322728514671
      vertex 19.9791839748621 2.7755575615628914e-16 37.43320980072021
    endloop
  endfacet
  facet normal -4.7446977905103754e-18 -1 9.947478372938008e-18
    outer loop
      vertex 0 0 0
      vertex 20.02699524462223 2.7755575615628914e-16 37.454496735334395
      vertex 20.003368321061135 2.7755575615628914e-16 37.44322728514671
    endloop
  endfacet
  facet normal -5.669544537470162e-18 -1 1.0441995801226007e-17
    outer loop
      vertex 0 0 0
      vertex 20.05 2.7755575615628914e-16 37.46698730587959
      vertex 20.02699524462223 2.7755575615628914e-16 37.454496735334395
    endloop
  endfacet
  facet normal -6.7547284466679275e-18 -1 1.102271869740517e-17
    outer loop
      vertex 0 0 0
      vertex 20.07231952548027 2.7755575615628914e-16 37.480664724111556
      vertex 20.05 2.7755575615628914e-16 37.46698730587959
    endloop
  endfacet
  facet normal -8.053871881426015e-18 -1 1.171845934992106e-17
    outer loop
      vertex 0 0 0
      vertex 20.09389262199402 2.7755575615628914e-16 37.495491498708724
      vertex 20.07231952548027 2.7755575615628914e-16 37.480664724111556
    endloop
  endfacet
  facet normal 2.456245629701674e-17 -1 -1.8562466972554634e-17
    outer loop
      vertex 0 0 0
      vertex 11.3 2.7755575615628914e-16 0
      vertex 39.6 0 52.4
    endloop
  endfacet
  facet normal 0 0 -1
    outer loop
      vertex 0 0 0
      vertex 39.6 17 0
      vertex 11.3 2.200000047683716 0
    endloop
  endfacet
  facet normal 0 -1 0
    outer loop
      vertex 0 0 0
      vertex 19.8 0 37.4
      vertex 0 0 52.4
    endloop
  endfacet
  facet normal -1 0 0
    outer loop
      vertex 0 0 0
      vertex 0 0 52.4
      vertex 0 17 52.4
    endloop
  endfacet
  facet normal 0 0 1
    outer loop
      vertex 0 0 52.4
      vertex 0.8 3.8 52.4
      vertex 0 17 52.4
    endloop
  endfacet
  facet normal 0 -1 0
    outer loop
      vertex 0 0 52.4
      vertex 19.8 0 37.4
      vertex 19.3 0 37.9
    endloop
  endfacet
  facet normal 0 -1 0
    outer loop
      vertex 0 0 52.4
      vertex 19.3 0 37.9
      vertex 19.30068524479866 0 37.92616797760129
    endloop
  endfacet
  facet normal 0 -1 0
    outer loop
      vertex 0 0 52.4
      vertex 19.30068524479866 0 37.92616797760129
      vertex 19.302739042043687 0 37.95226423218846
    endloop
  endfacet
  facet normal 0 -1 0
    outer loop
      vertex 0 0 52.4
      vertex 19.302739042043687 0 37.95226423218846
      vertex 19.30615581870079 0 37.97821723073721
    endloop
  endfacet
  facet normal 7.075785636837267e-15 -1 9.472214512595122e-15
    outer loop
      vertex 0 0 52.4
      vertex 19.30615581870079 0 37.97821723073721
      vertex 19.310926187038422 2.7755575615628914e-16 38.00395584255457
    endloop
  endfacet
  facet normal -6.882816062416653e-15 -1 -9.251924156370565e-15
    outer loop
      vertex 0 0 52.4
      vertex 19.310926187038422 2.7755575615628914e-16 38.00395584255457
      vertex 19.317037093639374 0 38.02940952181816
    endloop
  endfacet
  facet normal 0 -1 0
    outer loop
      vertex 0 0 52.4
      vertex 19.317037093639374 0 38.02940952181816
      vertex 19.32447172999382 0 38.054508501291274
    endloop
  endfacet
  facet normal 0 -1 0
    outer loop
      vertex 0 0 52.4
      vertex 19.32447172999382 0 38.054508501291274
      vertex 19.333209800720216 0 38.0791839748621
    endloop
  endfacet
  facet normal 0 -1 0
    outer loop
      vertex 0 0 52.4
      vertex 19.333209800720216 0 38.0791839748621
      vertex 19.343227285146714 0 38.10336832106113
    endloop
  endfacet
  facet normal 0 -1 0
    outer loop
      vertex 0 0 52.4
      vertex 19.343227285146714 0 38.10336832106113
      vertex 19.354496735334397 0 38.12699524462223
    endloop
  endfacet
  facet normal 0 -1 0
    outer loop
      vertex 0 0 52.4
      vertex 19.354496735334397 0 38.12699524462223
      vertex 19.366987305879594 0 38.15
    endloop
  endfacet
  facet normal 0 -1 0
    outer loop
      vertex 0 0 52.4
      vertex 19.366987305879594 0 38.15
      vertex 19.380664724111558 0 38.17231952548027
    endloop
  endfacet
  facet normal 0 -1 0
    outer loop
      vertex 0 0 52.4
      vertex 19.380664724111558 0 38.17231952548027
      vertex 19.395491498708726 0 38.19389262199402
    endloop
  endfacet
  facet normal 0 -1 0
    outer loop
      vertex 0 0 52.4
      vertex 19.395491498708726 0 38.19389262199402
      vertex 19.411427009105683 0 38.21466019153595
    endloop
  endfacet
  facet normal 0 -1 0
    outer loop
      vertex 0 0 52.4
      vertex 19.411427009105683 0 38.21466019153595
      vertex 19.428427594900132 0 38.2345653116703
    endloop
  endfacet
  facet normal 0 -1 0
    outer loop
      vertex 0 0 52.4
      vertex 19.428427594900132 0 38.2345653116703
      vertex 19.446446615457536 0 38.253553384542464
    endloop
  endfacet
  facet normal 0 -1 0
    outer loop
      vertex 0 0 52.4
      vertex 19.446446615457536 0 38.253553384542464
      vertex 19.465434688329697 0 38.27157240509987
    endloop
  endfacet
  facet normal 0 -1 0
    outer loop
      vertex 0 0 52.4
      vertex 19.465434688329697 0 38.27157240509987
      vertex 19.48533980846405 0 38.288572990894316
    endloop
  endfacet
  facet normal 0 -1 0
    outer loop
      vertex 0 0 52.4
      vertex 19.48533980846405 0 38.288572990894316
      vertex 19.506107378005982 0 38.304508501291274
    endloop
  endfacet
  facet normal 0 0 1
    outer loop
      vertex 0 0 52.4
      vertex 39.6 0 52.4
      vertex 0.8 3.8 52.4
    endloop
  endfacet
  facet normal 0 -1 0
    outer loop
      vertex 0 0 52.4
      vertex 19.506107378005982 0 38.304508501291274
      vertex 39.6 0 52.4
    endloop
  endfacet
  facet normal -1 0 0
    outer loop
      vertex 0 0 0
      vertex 0 17 52.4
      vertex 0 17 0
    endloop
  endfacet
  facet normal 0 0 -1
    outer loop
      vertex 0 0 0
      vertex 0 17 0
      vertex 39.6 17 0
    endloop
  endfacet
  facet normal 0 1 0
    outer loop
      vertex 0 17 0
      vertex 3.8 17 36.4
      vertex 35.8 17 36.4
    endloop
  endfacet
  facet normal 0 0 1
    outer loop
      vertex 0 17 52.4
      vertex 0.8 3.8 52.4
      vertex 0.8 15.8 52.4
    endloop
  endfacet
  facet normal 0 1 0
    outer loop
      vertex 0 17 0
      vertex 0 17 52.4
      vertex 3.8 17 36.4
    endloop
  endfacet
  facet normal 0 0 1
    outer loop
      vertex 0 17 52.4
      vertex 0.8 15.8 52.4
      vertex 3.8 15.8 52.4
    endloop
  endfacet
  facet normal 0 1 0
    outer loop
      vertex 0 17 52.4
      vertex 3.8 17 52.4
      vertex 3.8 17 36.4
    endloop
  endfacet
  facet normal 0 0 1
    outer loop
      vertex 0 17 52.4
      vertex 3.8 15.8 52.4
      vertex 3.8 17 52.4
    endloop
  endfacet
  facet normal 4.856321750929646e-34 -1 -5.296865575501701e-18
    outer loop
      vertex 39.6 0 52.4
      vertex 11.3 2.7755575615628914e-16 0
      vertex 26.8 2.7755575615628914e-16 0
    endloop
  endfacet
  facet normal 0 0 -1
    outer loop
      vertex 39.6 17 0
      vertex 28.3 2.200000047683716 0
      vertex 11.3 2.200000047683716 0
    endloop
  endfacet
  facet normal 0 0 -1
    outer loop
      vertex 39.6 0 0
      vertex 28.3 2.7755575615628914e-16 0
      vertex 28.3 2.200000047683716 0
    endloop
  endfacet
  facet normal 5.018199142627301e-33 -1 -5.296865575501703e-18
    outer loop
      vertex 39.6 0 52.4
      vertex 26.8 2.7755575615628914e-16 0
      vertex 28.3 2.7755575615628914e-16 0
    endloop
  endfacet
  facet normal -2.456245629701674e-17 -1 -3.3306631477614833e-34
    outer loop
      vertex 28.3 2.7755575615628914e-16 0
      vertex 39.6 0 0
      vertex 39.6 0 52.4
    endloop
  endfacet
  facet normal 0 0 -1
    outer loop
      vertex 39.6 0 0
      vertex 28.3 2.200000047683716 0
      vertex 39.6 17 0
    endloop
  endfacet
  facet normal 1 0 0
    outer loop
      vertex 39.6 0 0
      vertex 39.6 17 0
      vertex 39.6 0 52.4
    endloop
  endfacet
  facet normal -3.367416404156988e-17 -1 2.5448414046682576e-17
    outer loop
      vertex 0 0 0
      vertex 39.6 0 52.4
      vertex 20.09389262199402 2.7755575615628914e-16 37.495491498708724
    endloop
  endfacet
  facet normal -3.37798021429664e-15 -1 4.402271233500305e-15
    outer loop
      vertex 39.6 0 52.4
      vertex 20.11466019153595 2.7755575615628914e-16 37.51142700910568
      vertex 20.09389262199402 2.7755575615628914e-16 37.495491498708724
    endloop
  endfacet
  facet normal -1.3519073328788417e-16 -1 1.5828794487924524e-16
    outer loop
      vertex 39.6 0 52.4
      vertex 20.134565311670304 2.7755575615628914e-16 37.52842759490013
      vertex 20.11466019153595 2.7755575615628914e-16 37.51142700910568
    endloop
  endfacet
  facet normal -7.315499712400654e-17 -1 7.708922979071915e-17
    outer loop
      vertex 39.6 0 52.4
      vertex 20.153553384542466 2.7755575615628914e-16 37.54644661545753
      vertex 20.134565311670304 2.7755575615628914e-16 37.52842759490013
    endloop
  endfacet
  facet normal -5.187045515972993e-17 -1 4.9223257364642846e-17
    outer loop
      vertex 39.6 0 52.4
      vertex 20.17157240509987 2.7755575615628914e-16 37.565434688329695
      vertex 20.153553384542466 2.7755575615628914e-16 37.54644661545753
    endloop
  endfacet
  facet normal -4.106761659796131e-17 -1 3.50750728774647e-17
    outer loop
      vertex 39.6 0 52.4
      vertex 20.18857299089432 2.7755575615628914e-16 37.58533980846405
      vertex 20.17157240509987 2.7755575615628914e-16 37.565434688329695
    endloop
  endfacet
  facet normal -3.450579682521417e-17 -1 2.647721886536868e-17
    outer loop
      vertex 39.6 0 52.4
      vertex 20.204508501291276 2.7755575615628914e-16 37.60610737800598
      vertex 20.18857299089432 2.7755575615628914e-16 37.58533980846405
    endloop
  endfacet
  facet normal 2.0595957719474073e-14 -1 -2.70210342082434e-14
    outer loop
      vertex 39.6 0 52.4
      vertex 20.219335275888444 0 37.62768047451973
      vertex 20.204508501291276 2.7755575615628914e-16 37.60610737800598
    endloop
  endfacet
  facet normal -1.778648909925394e-14 -1 2.333512900645834e-14
    outer loop
      vertex 39.6 0 52.4
      vertex 20.233012694120408 2.7755575615628914e-16 37.65
      vertex 20.219335275888444 0 37.62768047451973
    endloop
  endfacet
  facet normal -2.4436196994583348e-17 -1 1.3267780396052167e-17
    outer loop
      vertex 39.6 0 52.4
      vertex 20.245503264665604 2.7755575615628914e-16 37.67300475537777
      vertex 20.233012694120408 2.7755575615628914e-16 37.65
    endloop
  endfacet
  facet normal 0 -1 0
    outer loop
      vertex 39.6 0 52.4
      vertex 19.506107378005982 0 38.304508501291274
      vertex 19.52768047451973 0 38.31933527588844
    endloop
  endfacet
  facet normal 0 -1 0
    outer loop
      vertex 39.6 0 52.4
      vertex 19.52768047451973 0 38.31933527588844
      vertex 19.55 0 38.333012694120406
    endloop
  endfacet
  facet normal 0 -1 0
    outer loop
      vertex 39.6 0 52.4
      vertex 19.55 0 38.333012694120406
      vertex 19.57300475537777 0 38.3455032646656
    endloop
  endfacet
  facet normal 0 -1 0
    outer loop
      vertex 39.6 0 52.4
      vertex 19.57300475537777 0 38.3455032646656
      vertex 19.596631678938866 0 38.356772714853285
    endloop
  endfacet
  facet normal 0 -1 0
    outer loop
      vertex 39.6 0 52.4
      vertex 19.596631678938866 0 38.356772714853285
      vertex 19.620816025137902 0 38.366790199279784
    endloop
  endfacet
  facet normal 0 -1 0
    outer loop
      vertex 39.6 0 52.4
      vertex 19.620816025137902 0 38.366790199279784
      vertex 19.645491498708726 0 38.37552827000618
    endloop
  endfacet
  facet normal 0 -1 0
    outer loop
      vertex 39.6 0 52.4
      vertex 19.8 0 38.4
      vertex 20.3 0 37.9
    endloop
  endfacet
  facet normal 0 -1 0
    outer loop
      vertex 39.6 0 52.4
      vertex 19.645491498708726 0 38.37552827000618
      vertex 19.67059047818184 0 38.382962906360625
    endloop
  endfacet
  facet normal 0 -1 0
    outer loop
      vertex 39.6 0 52.4
      vertex 19.67059047818184 0 38.382962906360625
      vertex 19.69604415744543 0 38.38907381296158
    endloop
  endfacet
  facet normal 0 -1 0
    outer loop
      vertex 39.6 0 52.4
      vertex 19.69604415744543 0 38.38907381296158
      vertex 19.72178276926279 0 38.39384418129921
    endloop
  endfacet
  facet normal 0 -1 0
    outer loop
      vertex 39.6 0 52.4
      vertex 19.72178276926279 0 38.39384418129921
      vertex 19.747735767811537 0 38.39726095795631
    endloop
  endfacet
  facet normal 0 -1 0
    outer loop
      vertex 39.6 0 52.4
      vertex 19.747735767811537 0 38.39726095795631
      vertex 19.77383202239871 0 38.39931475520134
    endloop
  endfacet
  facet normal 0 -1 0
    outer loop
      vertex 39.6 0 52.4
      vertex 19.77383202239871 0 38.39931475520134
      vertex 19.8 0 38.4
    endloop
  endfacet
  facet normal -1.9636032955283127e-17 -1 6.953505644241981e-18
    outer loop
      vertex 39.6 0 52.4
      vertex 20.27552827000618 2.7755575615628914e-16 37.745491498708724
      vertex 20.266790199279786 2.7755575615628914e-16 37.7208160251379
    endloop
  endfacet
  facet normal -1.2732745139057135e-14 -1 1.6750745666612967e-14
    outer loop
      vertex 39.6 0 52.4
      vertex 20.266790199279786 2.7755575615628914e-16 37.7208160251379
      vertex 20.256772714853287 0 37.696631678938864
    endloop
  endfacet
  facet normal 1.4008565962298508e-14 -1 -1.8429170067077134e-14
    outer loop
      vertex 39.6 0 52.4
      vertex 20.256772714853287 0 37.696631678938864
      vertex 20.245503264665604 2.7755575615628914e-16 37.67300475537777
    endloop
  endfacet
  facet normal 1.0797027665833067e-14 -1 -1.425666453665773e-14
    outer loop
      vertex 39.6 0 52.4
      vertex 20.282962906360627 0 37.77059047818184
      vertex 20.27552827000618 2.7755575615628914e-16 37.745491498708724
    endloop
  endfacet
  facet normal -1.6715952881232698e-17 -1 3.098117836493923e-18
    outer loop
      vertex 39.6 0 52.4
      vertex 20.29384418129921 2.7755575615628914e-16 37.82178276926279
      vertex 20.28907381296158 2.7755575615628914e-16 37.79604415744543
    endloop
  endfacet
  facet normal -1.0093389451953262e-14 -1 1.332756309495244e-14
    outer loop
      vertex 39.6 0 52.4
      vertex 20.28907381296158 2.7755575615628914e-16 37.79604415744543
      vertex 20.282962906360627 0 37.77059047818184
    endloop
  endfacet
  facet normal 8.128681797044757e-15 -1 -1.0819555771238882e-14
    outer loop
      vertex 39.6 0 52.4
      vertex 20.3 0 37.9
      vertex 20.29931475520134 2.7755575615628914e-16 37.87383202239871
    endloop
  endfacet
  facet normal -1.528604229475992e-17 -1 1.2030244205137023e-18
    outer loop
      vertex 39.6 0 52.4
      vertex 20.29931475520134 2.7755575615628914e-16 37.87383202239871
      vertex 20.297260957956315 2.7755575615628914e-16 37.847735767811535
    endloop
  endfacet
  facet normal -1.5963501171044067e-17 -1 2.101634540009924e-18
    outer loop
      vertex 39.6 0 52.4
      vertex 20.297260957956315 2.7755575615628914e-16 37.847735767811535
      vertex 20.29384418129921 2.7755575615628914e-16 37.82178276926279
    endloop
  endfacet
  facet normal 0 0 1
    outer loop
      vertex 39.6 0 52.4
      vertex 38.8 3.8 52.4
      vertex 0.8 3.8 52.4
    endloop
  endfacet
  facet normal 0 0 1
    outer loop
      vertex 39.6 0 52.4
      vertex 39.6 17 52.4
      vertex 38.8 3.8 52.4
    endloop
  endfacet
  facet normal 0 1 0
    outer loop
      vertex 0 17 0
      vertex 35.8 17 36.4
      vertex 39.6 17 0
    endloop
  endfacet
  facet normal 1 0 0
    outer loop
      vertex 39.6 0 52.4
      vertex 39.6 17 0
      vertex 39.6 17 52.4
    endloop
  endfacet
  facet normal 0 0 1
    outer loop
      vertex 39.6 17 52.4
      vertex 38.8 15.8 52.4
      vertex 38.8 3.8 52.4
    endloop
  endfacet
  facet normal 0 1 0
    outer loop
      vertex 39.6 17 0
      vertex 35.8 17 36.4
      vertex 39.6 17 52.4
    endloop
  endfacet
  facet normal 0 1 0
    outer loop
      vertex 39.6 17 52.4
      vertex 35.8 17 36.4
      vertex 35.8 17 52.4
    endloop
  endfacet
  facet normal 0 0 1
    outer loop
      vertex 35.8 17 52.4
      vertex 35.8 15.8 52.4
      vertex 38.8 15.8 52.4
    endloop
  endfacet
  facet normal 0 0 1
    outer loop
      vertex 39.6 17 52.4
      vertex 35.8 17 52.4
      vertex 38.8 15.8 52.4
    endloop
  endfacet
endsolid OpenSCAD_Model
