solid OpenSCAD_Model
  facet normal 0.7071072026550578 0 0.7071063597177861
    outer loop
      vertex 9.779184341430664 1.7999999523162842 21.199999809265137
      vertex 9.779184341430664 2.200000047683716 21.199999809265137
      vertex 8.979185104370117 1.899999976158142 22
    endloop
  endfacet
  facet normal 0 0 1
    outer loop
      vertex 9.779184341430664 1.7999999523162842 21.199999809265137
      vertex 10.37918472290039 1.7999999523162842 21.199999809265137
      vertex 10.37918472290039 2.200000047683716 21.199999809265137
    endloop
  endfacet
  facet normal 0 0 1
    outer loop
      vertex 9.779184341430664 1.7999999523162842 21.199999809265137
      vertex 10.37918472290039 2.200000047683716 21.199999809265137
      vertex 9.779184341430664 2.200000047683716 21.199999809265137
    endloop
  endfacet
  facet normal 0 0.7071068865536515 0.7071066758194279
    outer loop
      vertex 11.179184913635254 1 22
      vertex 10.37918472290039 1.7999999523162842 21.199999809265137
      vertex 9.779184341430664 1.7999999523162842 21.199999809265137
    endloop
  endfacet
  facet normal 0 -1 0
    outer loop
      vertex 9.779184341430664 2.200000047683716 21.199999809265137
      vertex 10.37918472290039 2.200000047683716 21.199999809265137
      vertex 11.179184913635254 2.200000047683716 22
    endloop
  endfacet
  facet normal -0.7071067811865476 0 0.7071067811865476
    outer loop
      vertex 10.37918472290039 1.7999999523162842 21.199999809265137
      vertex 11.179184913635254 2.200000047683716 22
      vertex 10.37918472290039 2.200000047683716 21.199999809265137
    endloop
  endfacet
  facet normal 0.7071067811865476 0 0.7071067811865476
    outer loop
      vertex 14.62081527709961 1.7999999523162842 21.199999809265137
      vertex 14.62081527709961 2.200000047683716 21.199999809265137
      vertex 13.820815086364746 2.200000047683716 22
    endloop
  endfacet
  facet normal 0 0.7071068865536515 0.7071066758194279
    outer loop
      vertex 14.62081527709961 1.7999999523162842 21.199999809265137
      vertex 16.020814895629883 1 22
      vertex 15.220815658569336 1.7999999523162842 21.199999809265137
    endloop
  endfacet
  facet normal 0 0 1
    outer loop
      vertex 14.62081527709961 1.7999999523162842 21.199999809265137
      vertex 15.220815658569336 1.7999999523162842 21.199999809265137
      vertex 15.220815658569336 2.200000047683716 21.199999809265137
    endloop
  endfacet
  facet normal 0 0 1
    outer loop
      vertex 14.62081527709961 1.7999999523162842 21.199999809265137
      vertex 15.220815658569336 2.200000047683716 21.199999809265137
      vertex 14.62081527709961 2.200000047683716 21.199999809265137
    endloop
  endfacet
  facet normal 0 -1 0
    outer loop
      vertex 14.62081527709961 2.200000047683716 21.199999809265137
      vertex 15.220815658569336 2.200000047683716 21.199999809265137
      vertex 16.020814895629883 2.200000047683716 22
    endloop
  endfacet
  facet normal -0.7071072026550578 0 0.7071063597177861
    outer loop
      vertex 15.220815658569336 1.7999999523162842 21.199999809265137
      vertex 16.020814895629883 1.899999976158142 22
      vertex 15.220815658569336 2.200000047683716 21.199999809265137
    endloop
  endfacet
  facet normal 0.7071055167825241 0 0.70710804558831
    outer loop
      vertex 34.7791862487793 1.7999999523162842 21.199999809265137
      vertex 34.7791862487793 2.200000047683716 21.199999809265137
      vertex 33.979183197021484 1.899999976158142 22
    endloop
  endfacet
  facet normal 0 0 1
    outer loop
      vertex 34.7791862487793 1.7999999523162842 21.199999809265137
      vertex 35.37918472290039 2.200000047683716 21.199999809265137
      vertex 34.7791862487793 2.200000047683716 21.199999809265137
    endloop
  endfacet
  facet normal 0 0.7071068865536516 0.7071066758194279
    outer loop
      vertex 36.17918395996094 1 22
      vertex 35.37918472290039 1.7999999523162842 21.199999809265137
      vertex 34.7791862487793 1.7999999523162842 21.199999809265137
    endloop
  endfacet
  facet normal 0 0 1
    outer loop
      vertex 34.7791862487793 1.7999999523162842 21.199999809265137
      vertex 35.37918472290039 1.7999999523162842 21.199999809265137
      vertex 35.37918472290039 2.200000047683716 21.199999809265137
    endloop
  endfacet
  facet normal 0 -1 0
    outer loop
      vertex 34.7791862487793 2.200000047683716 21.199999809265137
      vertex 35.37918472290039 2.200000047683716 21.199999809265137
      vertex 36.17918395996094 2.200000047683716 22
    endloop
  endfacet
  facet normal -0.7071072026550578 0 0.7071063597177861
    outer loop
      vertex 35.37918472290039 1.7999999523162842 21.199999809265137
      vertex 36.17918395996094 2.200000047683716 22
      vertex 35.37918472290039 2.200000047683716 21.199999809265137
    endloop
  endfacet
  facet normal 0 0.7071067882110224 0.7071067741620727
    outer loop
      vertex 7.479184627532959 0.4000000059604645 23.5
      vertex 0 1.899999976158142 22
      vertex 0 0.4000000059604645 23.5
    endloop
  endfacet
  facet normal 0 0 1
    outer loop
      vertex 7.479184627532959 2.7755575615628914e-16 23.5
      vertex 0 0.4000000059604645 23.5
      vertex 0 2.7755575615628914e-16 23.5
    endloop
  endfacet
  facet normal 0 0 1
    outer loop
      vertex 8.979185104370117 1.899999976158142 22
      vertex 0 2.200000047683716 22
      vertex 0 1.899999976158142 22
    endloop
  endfacet
  facet normal 0 1 4.2700885562506023e-17
    outer loop
      vertex 7.479184627532959 2.7755575615628914e-16 23.5
      vertex 0 2.7755575615628914e-16 23.5
      vertex 0 4.707671335244512e-34 30
    endloop
  endfacet
  facet normal 0 0.7071067882110222 0.7071067741620726
    outer loop
      vertex 8.979185104370117 1.899999976158142 22
      vertex 0 1.899999976158142 22
      vertex 7.479184627532959 0.4000000059604645 23.5
    endloop
  endfacet
  facet normal 0 0 1
    outer loop
      vertex 7.479184627532959 2.7755575615628914e-16 23.5
      vertex 7.479184627532959 0.4000000059604645 23.5
      vertex 0 0.4000000059604645 23.5
    endloop
  endfacet
  facet normal 0 0 1
    outer loop
      vertex 8.979185104370117 1.899999976158142 22
      vertex 8.979185104370117 2.200000047683716 22
      vertex 0 2.200000047683716 22
    endloop
  endfacet
  facet normal 0.7071066687949604 0 0.7071068935781167
    outer loop
      vertex 8.979185104370117 2.7755575615628914e-16 22
      vertex 7.479184627532959 0.4000000059604645 23.5
      vertex 7.479184627532959 2.7755575615628914e-16 23.5
    endloop
  endfacet
  facet normal 0.7071066687949604 0 0.7071068935781168
    outer loop
      vertex 8.979185104370117 2.7755575615628914e-16 22
      vertex 8.979185104370117 1 22
      vertex 7.479184627532959 0.4000000059604645 23.5
    endloop
  endfacet
  facet normal 0.7071066687949604 0 0.7071068935781167
    outer loop
      vertex 8.979185104370117 1 22
      vertex 8.979185104370117 1.899999976158142 22
      vertex 7.479184627532959 0.4000000059604645 23.5
    endloop
  endfacet
  facet normal 0 1 4.2700885562506023e-17
    outer loop
      vertex 7.479184627532959 2.7755575615628914e-16 23.5
      vertex 0 4.707671335244512e-34 30
      vertex 17.520814895629883 2.7755575615628914e-16 23.5
    endloop
  endfacet
  facet normal 0 -1 0
    outer loop
      vertex 8.979185104370117 2.200000047683716 22
      vertex 0 2.200000047683716 39
      vertex 0 2.200000047683716 22
    endloop
  endfacet
  facet normal 0 -1 0
    outer loop
      vertex 8.979185104370117 2.200000047683716 22
      vertex 11.179184913635254 2.200000047683716 22
      vertex 0 2.200000047683716 39
    endloop
  endfacet
  facet normal 0 -1 0
    outer loop
      vertex 11.179184913635254 2.200000047683716 22
      vertex 13.820815086364746 2.200000047683716 22
      vertex 0 2.200000047683716 39
    endloop
  endfacet
  facet normal 0 0 1
    outer loop
      vertex 8.979185104370117 2.7755575615628914e-16 22
      vertex 11.179184913635254 1 22
      vertex 8.979185104370117 1 22
    endloop
  endfacet
  facet normal 0 0.7071068865536515 0.7071066758194279
    outer loop
      vertex 8.979185104370117 1 22
      vertex 11.179184913635254 1 22
      vertex 9.779184341430664 1.7999999523162842 21.199999809265137
    endloop
  endfacet
  facet normal 0 0 1
    outer loop
      vertex 8.979185104370117 2.7755575615628914e-16 22
      vertex 13.820815086364746 1 22
      vertex 11.179184913635254 1 22
    endloop
  endfacet
  facet normal 0 1 0
    outer loop
      vertex 8.979185104370117 2.7755575615628914e-16 22
      vertex 7.479184627532959 2.7755575615628914e-16 23.5
      vertex 16.020814895629883 2.7755575615628914e-16 22
    endloop
  endfacet
  facet normal 0.7071072026550578 0 0.7071063597177861
    outer loop
      vertex 8.979185104370117 1 22
      vertex 9.779184341430664 1.7999999523162842 21.199999809265137
      vertex 8.979185104370117 1.899999976158142 22
    endloop
  endfacet
  facet normal 0.7071072026550577 0 0.707106359717786
    outer loop
      vertex 8.979185104370117 1.899999976158142 22
      vertex 9.779184341430664 2.200000047683716 21.199999809265137
      vertex 8.979185104370117 2.200000047683716 22
    endloop
  endfacet
  facet normal 0 -1 0
    outer loop
      vertex 9.779184341430664 2.200000047683716 21.199999809265137
      vertex 11.179184913635254 2.200000047683716 22
      vertex 8.979185104370117 2.200000047683716 22
    endloop
  endfacet
  facet normal -0.7071067811865476 0 0.7071067811865476
    outer loop
      vertex 11.179184913635254 1 22
      vertex 11.179184913635254 2.200000047683716 22
      vertex 10.37918472290039 1.7999999523162842 21.199999809265137
    endloop
  endfacet
  facet normal 0 0 1
    outer loop
      vertex 8.979185104370117 2.7755575615628914e-16 22
      vertex 16.020814895629883 2.7755575615628914e-16 22
      vertex 13.820815086364746 1 22
    endloop
  endfacet
  facet normal 0 0 1
    outer loop
      vertex 11.179184913635254 1 22
      vertex 13.820815086364746 1 22
      vertex 13.820815086364746 2.200000047683716 22
    endloop
  endfacet
  facet normal 0 0 1
    outer loop
      vertex 11.179184913635254 1 22
      vertex 13.820815086364746 2.200000047683716 22
      vertex 11.179184913635254 2.200000047683716 22
    endloop
  endfacet
  facet normal 0 1 0
    outer loop
      vertex 16.020814895629883 2.7755575615628914e-16 22
      vertex 7.479184627532959 2.7755575615628914e-16 23.5
      vertex 17.520814895629883 2.7755575615628914e-16 23.5
    endloop
  endfacet
  facet normal 0 0 1
    outer loop
      vertex 13.820815086364746 1 22
      vertex 16.020814895629883 2.7755575615628914e-16 22
      vertex 16.020814895629883 1 22
    endloop
  endfacet
  facet normal 0 0.7071068865536515 0.7071066758194279
    outer loop
      vertex 13.820815086364746 1 22
      vertex 16.020814895629883 1 22
      vertex 14.62081527709961 1.7999999523162842 21.199999809265137
    endloop
  endfacet
  facet normal 0.7071067811865476 0 0.7071067811865476
    outer loop
      vertex 13.820815086364746 1 22
      vertex 14.62081527709961 1.7999999523162842 21.199999809265137
      vertex 13.820815086364746 2.200000047683716 22
    endloop
  endfacet
  facet normal 0 -1 0
    outer loop
      vertex 14.62081527709961 2.200000047683716 21.199999809265137
      vertex 16.020814895629883 2.200000047683716 22
      vertex 13.820815086364746 2.200000047683716 22
    endloop
  endfacet
  facet normal -0.7071072026550578 0 0.7071063597177861
    outer loop
      vertex 15.220815658569336 1.7999999523162842 21.199999809265137
      vertex 16.020814895629883 1 22
      vertex 16.020814895629883 1.899999976158142 22
    endloop
  endfacet
  facet normal -0.7071072026550577 0 0.707106359717786
    outer loop
      vertex 15.220815658569336 2.200000047683716 21.199999809265137
      vertex 16.020814895629883 1.899999976158142 22
      vertex 16.020814895629883 2.200000047683716 22
    endloop
  endfacet
  facet normal -0.7071067811865476 0 0.7071067811865476
    outer loop
      vertex 16.020814895629883 2.7755575615628914e-16 22
      vertex 17.520814895629883 0.4000000059604645 23.5
      vertex 16.020814895629883 1 22
    endloop
  endfacet
  facet normal -0.7071067811865476 0 0.7071067811865476
    outer loop
      vertex 16.020814895629883 1 22
      vertex 17.520814895629883 0.4000000059604645 23.5
      vertex 16.020814895629883 1.899999976158142 22
    endloop
  endfacet
  facet normal -0.7071067811865476 0 0.7071067811865476
    outer loop
      vertex 16.020814895629883 2.7755575615628914e-16 22
      vertex 17.520814895629883 2.7755575615628914e-16 23.5
      vertex 17.520814895629883 0.4000000059604645 23.5
    endloop
  endfacet
  facet normal 0 1 4.2700885562506023e-17
    outer loop
      vertex 17.520814895629883 2.7755575615628914e-16 23.5
      vertex 0 4.707671335244512e-34 30
      vertex 32.479183197021484 2.7755575615628914e-16 23.5
    endloop
  endfacet
  facet normal 0 -1 0
    outer loop
      vertex 13.820815086364746 2.200000047683716 22
      vertex 16.020814895629883 2.200000047683716 22
      vertex 0 2.200000047683716 39
    endloop
  endfacet
  facet normal 0 -1 0
    outer loop
      vertex 16.020814895629883 2.200000047683716 22
      vertex 33.979183197021484 2.200000047683716 22
      vertex 0 2.200000047683716 39
    endloop
  endfacet
  facet normal -1.0607813142668604e-14 1 -4.2700885562506023e-17
    outer loop
      vertex 0.02616797760128975 2.7755575615628914e-16 30.99931475520134
      vertex 0 0 31
      vertex 0 2.7755575615628914e-16 37.5
    endloop
  endfacet
  facet normal 0 1 0
    outer loop
      vertex 0.05226423218846321 2.7755575615628914e-16 30.997260957956314
      vertex 0.02616797760128975 2.7755575615628914e-16 30.99931475520134
      vertex 0 2.7755575615628914e-16 37.5
    endloop
  endfacet
  facet normal 0 1 0
    outer loop
      vertex 7.479184627532959 2.7755575615628914e-16 37.5
      vertex 0.05226423218846321 2.7755575615628914e-16 30.997260957956314
      vertex 0 2.7755575615628914e-16 37.5
    endloop
  endfacet
  facet normal 0 0 -1
    outer loop
      vertex 7.479184627532959 0.4000000059604645 37.5
      vertex 0 2.7755575615628914e-16 37.5
      vertex 0 0.4000000059604645 37.5
    endloop
  endfacet
  facet normal 0 0 -1
    outer loop
      vertex 7.479184627532959 2.7755575615628914e-16 37.5
      vertex 0 2.7755575615628914e-16 37.5
      vertex 7.479184627532959 0.4000000059604645 37.5
    endloop
  endfacet
  facet normal 0 1 0
    outer loop
      vertex 17.520814895629883 2.7755575615628914e-16 37.5
      vertex 0.05226423218846321 2.7755575615628914e-16 30.997260957956314
      vertex 7.479184627532959 2.7755575615628914e-16 37.5
    endloop
  endfacet
  facet normal 0 0.7071067882110224 -0.7071067741620727
    outer loop
      vertex 7.479184627532959 0.4000000059604645 37.5
      vertex 0 0.4000000059604645 37.5
      vertex 0 1.899999976158142 39
    endloop
  endfacet
  facet normal 0 0 -1
    outer loop
      vertex 8.979185104370117 2.200000047683716 39
      vertex 0 1.899999976158142 39
      vertex 0 2.200000047683716 39
    endloop
  endfacet
  facet normal 0 0.7071067882110222 -0.7071067741620726
    outer loop
      vertex 7.479184627532959 0.4000000059604645 37.5
      vertex 0 1.899999976158142 39
      vertex 8.979185104370117 1.899999976158142 39
    endloop
  endfacet
  facet normal 0 0 -1
    outer loop
      vertex 8.979185104370117 1.899999976158142 39
      vertex 0 1.899999976158142 39
      vertex 8.979185104370117 2.200000047683716 39
    endloop
  endfacet
  facet normal 0.7071066687949604 0 -0.7071068935781167
    outer loop
      vertex 7.479184627532959 2.7755575615628914e-16 37.5
      vertex 7.479184627532959 0.4000000059604645 37.5
      vertex 8.979185104370117 2.7755575615628914e-16 39
    endloop
  endfacet
  facet normal 0.7071066687949604 0 -0.7071068935781168
    outer loop
      vertex 7.479184627532959 0.4000000059604645 37.5
      vertex 8.979185104370117 1 39
      vertex 8.979185104370117 2.7755575615628914e-16 39
    endloop
  endfacet
  facet normal 0.7071066687949604 0 -0.7071068935781167
    outer loop
      vertex 7.479184627532959 0.4000000059604645 37.5
      vertex 8.979185104370117 1.899999976158142 39
      vertex 8.979185104370117 1 39
    endloop
  endfacet
  facet normal 0 1 0
    outer loop
      vertex 32.479183197021484 2.7755575615628914e-16 37.5
      vertex 0.05226423218846321 2.7755575615628914e-16 30.997260957956314
      vertex 17.520814895629883 2.7755575615628914e-16 37.5
    endloop
  endfacet
  facet normal 0 0 -1
    outer loop
      vertex 8.979185104370117 2.7755575615628914e-16 39
      vertex 8.979185104370117 1 39
      vertex 11.179184913635254 1 39
    endloop
  endfacet
  facet normal 0 0.7071068865536515 -0.7071066758194279
    outer loop
      vertex 8.979185104370117 1 39
      vertex 9.779184341430664 1.7999999523162842 39.80000019073486
      vertex 11.179184913635254 1 39
    endloop
  endfacet
  facet normal 0 1 0
    outer loop
      vertex 7.479184627532959 2.7755575615628914e-16 37.5
      vertex 8.979185104370117 2.7755575615628914e-16 39
      vertex 16.020814895629883 2.7755575615628914e-16 39
    endloop
  endfacet
  facet normal 0.7071072026550578 0 -0.7071063597177861
    outer loop
      vertex 8.979185104370117 1 39
      vertex 8.979185104370117 1.899999976158142 39
      vertex 9.779184341430664 1.7999999523162842 39.80000019073486
    endloop
  endfacet
  facet normal 0.7071072026550577 0 -0.707106359717786
    outer loop
      vertex 8.979185104370117 1.899999976158142 39
      vertex 8.979185104370117 2.200000047683716 39
      vertex 9.779184341430664 2.200000047683716 39.80000019073486
    endloop
  endfacet
  facet normal 0 -1 0
    outer loop
      vertex 8.979185104370117 2.200000047683716 39
      vertex 11.179184913635254 2.200000047683716 39
      vertex 9.779184341430664 2.200000047683716 39.80000019073486
    endloop
  endfacet
  facet normal -0.7071067811865476 0 -0.7071067811865476
    outer loop
      vertex 11.179184913635254 1 39
      vertex 10.37918472290039 1.7999999523162842 39.80000019073486
      vertex 11.179184913635254 2.200000047683716 39
    endloop
  endfacet
  facet normal 0.7071072026550578 0 -0.7071063597177861
    outer loop
      vertex 8.979185104370117 1.899999976158142 39
      vertex 9.779184341430664 2.200000047683716 39.80000019073486
      vertex 9.779184341430664 1.7999999523162842 39.80000019073486
    endloop
  endfacet
  facet normal 0 0 -1
    outer loop
      vertex 9.779184341430664 1.7999999523162842 39.80000019073486
      vertex 9.779184341430664 2.200000047683716 39.80000019073486
      vertex 10.37918472290039 1.7999999523162842 39.80000019073486
    endloop
  endfacet
  facet normal 0 0 -1
    outer loop
      vertex 10.37918472290039 1.7999999523162842 39.80000019073486
      vertex 9.779184341430664 2.200000047683716 39.80000019073486
      vertex 10.37918472290039 2.200000047683716 39.80000019073486
    endloop
  endfacet
  facet normal 0 0.7071068865536515 -0.7071066758194279
    outer loop
      vertex 11.179184913635254 1 39
      vertex 9.779184341430664 1.7999999523162842 39.80000019073486
      vertex 10.37918472290039 1.7999999523162842 39.80000019073486
    endloop
  endfacet
  facet normal 0 -1 0
    outer loop
      vertex 11.179184913635254 2.200000047683716 39
      vertex 10.37918472290039 2.200000047683716 39.80000019073486
      vertex 9.779184341430664 2.200000047683716 39.80000019073486
    endloop
  endfacet
  facet normal -0.7071067811865476 0 -0.7071067811865476
    outer loop
      vertex 11.179184913635254 2.200000047683716 39
      vertex 10.37918472290039 1.7999999523162842 39.80000019073486
      vertex 10.37918472290039 2.200000047683716 39.80000019073486
    endloop
  endfacet
  facet normal 0 0 -1
    outer loop
      vertex 8.979185104370117 2.7755575615628914e-16 39
      vertex 11.179184913635254 1 39
      vertex 16.020814895629883 2.7755575615628914e-16 39
    endloop
  endfacet
  facet normal 0 0 -1
    outer loop
      vertex 11.179184913635254 1 39
      vertex 11.179184913635254 2.200000047683716 39
      vertex 13.820815086364746 1 39
    endloop
  endfacet
  facet normal 0 0 -1
    outer loop
      vertex 13.820815086364746 1 39
      vertex 11.179184913635254 2.200000047683716 39
      vertex 13.820815086364746 2.200000047683716 39
    endloop
  endfacet
  facet normal 0 1 0
    outer loop
      vertex 7.479184627532959 2.7755575615628914e-16 37.5
      vertex 16.020814895629883 2.7755575615628914e-16 39
      vertex 17.520814895629883 2.7755575615628914e-16 37.5
    endloop
  endfacet
  facet normal 0 0 -1
    outer loop
      vertex 11.179184913635254 1 39
      vertex 13.820815086364746 1 39
      vertex 16.020814895629883 2.7755575615628914e-16 39
    endloop
  endfacet
  facet normal 0 0 -1
    outer loop
      vertex 13.820815086364746 1 39
      vertex 16.020814895629883 1 39
      vertex 16.020814895629883 2.7755575615628914e-16 39
    endloop
  endfacet
  facet normal 0 0.7071068865536515 -0.7071066758194279
    outer loop
      vertex 13.820815086364746 1 39
      vertex 14.62081527709961 1.7999999523162842 39.80000019073486
      vertex 16.020814895629883 1 39
    endloop
  endfacet
  facet normal 0.7071067811865476 0 -0.7071067811865476
    outer loop
      vertex 13.820815086364746 1 39
      vertex 13.820815086364746 2.200000047683716 39
      vertex 14.62081527709961 1.7999999523162842 39.80000019073486
    endloop
  endfacet
  facet normal 0 -1 0
    outer loop
      vertex 13.820815086364746 2.200000047683716 39
      vertex 16.020814895629883 2.200000047683716 39
      vertex 14.62081527709961 2.200000047683716 39.80000019073486
    endloop
  endfacet
  facet normal -0.7071072026550578 0 -0.7071063597177861
    outer loop
      vertex 15.220815658569336 1.7999999523162842 39.80000019073486
      vertex 16.020814895629883 1.899999976158142 39
      vertex 16.020814895629883 1 39
    endloop
  endfacet
  facet normal -0.7071072026550577 0 -0.707106359717786
    outer loop
      vertex 15.220815658569336 2.200000047683716 39.80000019073486
      vertex 16.020814895629883 2.200000047683716 39
      vertex 16.020814895629883 1.899999976158142 39
    endloop
  endfacet
  facet normal 0.7071067811865476 0 -0.7071067811865476
    outer loop
      vertex 13.820815086364746 2.200000047683716 39
      vertex 14.62081527709961 2.200000047683716 39.80000019073486
      vertex 14.62081527709961 1.7999999523162842 39.80000019073486
    endloop
  endfacet
  facet normal 0 0.7071068865536515 -0.7071066758194279
    outer loop
      vertex 14.62081527709961 1.7999999523162842 39.80000019073486
      vertex 15.220815658569336 1.7999999523162842 39.80000019073486
      vertex 16.020814895629883 1 39
    endloop
  endfacet
  facet normal 0 -1 0
    outer loop
      vertex 14.62081527709961 2.200000047683716 39.80000019073486
      vertex 16.020814895629883 2.200000047683716 39
      vertex 15.220815658569336 2.200000047683716 39.80000019073486
    endloop
  endfacet
  facet normal 0 0 -1
    outer loop
      vertex 14.62081527709961 1.7999999523162842 39.80000019073486
      vertex 14.62081527709961 2.200000047683716 39.80000019073486
      vertex 15.220815658569336 1.7999999523162842 39.80000019073486
    endloop
  endfacet
  facet normal 0 0 -1
    outer loop
      vertex 15.220815658569336 1.7999999523162842 39.80000019073486
      vertex 14.62081527709961 2.200000047683716 39.80000019073486
      vertex 15.220815658569336 2.200000047683716 39.80000019073486
    endloop
  endfacet
  facet normal -0.7071072026550578 0 -0.7071063597177861
    outer loop
      vertex 15.220815658569336 1.7999999523162842 39.80000019073486
      vertex 15.220815658569336 2.200000047683716 39.80000019073486
      vertex 16.020814895629883 1.899999976158142 39
    endloop
  endfacet
  facet normal -0.7071067811865476 0 -0.7071067811865476
    outer loop
      vertex 17.520814895629883 0.4000000059604645 37.5
      vertex 16.020814895629883 2.7755575615628914e-16 39
      vertex 16.020814895629883 1 39
    endloop
  endfacet
  facet normal -0.7071067811865476 0 -0.7071067811865476
    outer loop
      vertex 17.520814895629883 0.4000000059604645 37.5
      vertex 16.020814895629883 1 39
      vertex 16.020814895629883 1.899999976158142 39
    endloop
  endfacet
  facet normal -0.7071067811865476 0 -0.7071067811865476
    outer loop
      vertex 17.520814895629883 2.7755575615628914e-16 37.5
      vertex 16.020814895629883 2.7755575615628914e-16 39
      vertex 17.520814895629883 0.4000000059604645 37.5
    endloop
  endfacet
  facet normal 0 0.7071067882110224 0.7071067741620727
    outer loop
      vertex 16.020814895629883 1.899999976158142 22
      vertex 17.520814895629883 0.4000000059604645 23.5
      vertex 33.979183197021484 1.899999976158142 22
    endloop
  endfacet
  facet normal 0 0 1
    outer loop
      vertex 17.520814895629883 2.7755575615628914e-16 23.5
      vertex 32.479183197021484 0.4000000059604645 23.5
      vertex 17.520814895629883 0.4000000059604645 23.5
    endloop
  endfacet
  facet normal 0 0 1
    outer loop
      vertex 16.020814895629883 1.899999976158142 22
      vertex 33.979183197021484 2.200000047683716 22
      vertex 16.020814895629883 2.200000047683716 22
    endloop
  endfacet
  facet normal 0 1 4.2700885562506023e-17
    outer loop
      vertex 32.479183197021484 2.7755575615628914e-16 23.5
      vertex 0 4.707671335244512e-34 30
      vertex 42.520816802978516 2.7755575615628914e-16 23.5
    endloop
  endfacet
  facet normal 0 -1 0
    outer loop
      vertex 33.979183197021484 2.200000047683716 22
      vertex 36.17918395996094 2.200000047683716 22
      vertex 0 2.200000047683716 39
    endloop
  endfacet
  facet normal 0 -1 0
    outer loop
      vertex 36.17918395996094 2.200000047683716 22
      vertex 38.82081604003906 2.200000047683716 22
      vertex 0 2.200000047683716 39
    endloop
  endfacet
  facet normal 0 -1 0
    outer loop
      vertex 38.82081604003906 2.200000047683716 22
      vertex 41.020816802978516 2.200000047683716 22
      vertex 0 2.200000047683716 39
    endloop
  endfacet
  facet normal 0 0.7071067882110224 0.7071067741620727
    outer loop
      vertex 33.979183197021484 1.899999976158142 22
      vertex 17.520814895629883 0.4000000059604645 23.5
      vertex 32.479183197021484 0.4000000059604645 23.5
    endloop
  endfacet
  facet normal 0 0 1
    outer loop
      vertex 17.520814895629883 2.7755575615628914e-16 23.5
      vertex 32.479183197021484 2.7755575615628914e-16 23.5
      vertex 32.479183197021484 0.4000000059604645 23.5
    endloop
  endfacet
  facet normal 0 0 1
    outer loop
      vertex 16.020814895629883 1.899999976158142 22
      vertex 33.979183197021484 1.899999976158142 22
      vertex 33.979183197021484 2.200000047683716 22
    endloop
  endfacet
  facet normal 0.7071067811865476 0 0.7071067811865476
    outer loop
      vertex 33.979183197021484 2.7755575615628914e-16 22
      vertex 32.479183197021484 0.4000000059604645 23.5
      vertex 32.479183197021484 2.7755575615628914e-16 23.5
    endloop
  endfacet
  facet normal 0.7071067811865476 0 0.7071067811865476
    outer loop
      vertex 33.979183197021484 2.7755575615628914e-16 22
      vertex 33.979183197021484 1 22
      vertex 32.479183197021484 0.4000000059604645 23.5
    endloop
  endfacet
  facet normal 0.7071067811865476 0 0.7071067811865476
    outer loop
      vertex 33.979183197021484 1 22
      vertex 33.979183197021484 1.899999976158142 22
      vertex 32.479183197021484 0.4000000059604645 23.5
    endloop
  endfacet
  facet normal 0 0 1
    outer loop
      vertex 33.979183197021484 2.7755575615628914e-16 22
      vertex 36.17918395996094 1 22
      vertex 33.979183197021484 1 22
    endloop
  endfacet
  facet normal 0 0.7071068865536516 0.7071066758194279
    outer loop
      vertex 33.979183197021484 1 22
      vertex 36.17918395996094 1 22
      vertex 34.7791862487793 1.7999999523162842 21.199999809265137
    endloop
  endfacet
  facet normal 0 1 0
    outer loop
      vertex 33.979183197021484 2.7755575615628914e-16 22
      vertex 32.479183197021484 2.7755575615628914e-16 23.5
      vertex 41.020816802978516 2.7755575615628914e-16 22
    endloop
  endfacet
  facet normal 0.7071055167825242 0 0.7071080455883101
    outer loop
      vertex 33.979183197021484 1 22
      vertex 34.7791862487793 1.7999999523162842 21.199999809265137
      vertex 33.979183197021484 1.899999976158142 22
    endloop
  endfacet
  facet normal 0.7071055167825241 0 0.70710804558831
    outer loop
      vertex 33.979183197021484 1.899999976158142 22
      vertex 34.7791862487793 2.200000047683716 21.199999809265137
      vertex 33.979183197021484 2.200000047683716 22
    endloop
  endfacet
  facet normal 0 -1 0
    outer loop
      vertex 34.7791862487793 2.200000047683716 21.199999809265137
      vertex 36.17918395996094 2.200000047683716 22
      vertex 33.979183197021484 2.200000047683716 22
    endloop
  endfacet
  facet normal -0.7071072026550578 0 0.707106359717786
    outer loop
      vertex 36.17918395996094 1 22
      vertex 36.17918395996094 2.200000047683716 22
      vertex 35.37918472290039 1.7999999523162842 21.199999809265137
    endloop
  endfacet
  facet normal 0 1 4.2700885562506023e-17
    outer loop
      vertex 42.520816802978516 2.7755575615628914e-16 23.5
      vertex 0 4.707671335244512e-34 30
      vertex 57.479183197021484 2.7755575615628914e-16 23.5
    endloop
  endfacet
  facet normal 0 -1 0
    outer loop
      vertex 41.020816802978516 2.200000047683716 22
      vertex 58.979183197021484 2.200000047683716 22
      vertex 0 2.200000047683716 39
    endloop
  endfacet
  facet normal 4.9451203230639974e-15 1 -4.3671293316223047e-14
    outer loop
      vertex 0.07821723073720932 0 30.99384418129921
      vertex 0.05226423218846321 2.7755575615628914e-16 30.997260957956314
      vertex 57.479183197021484 2.7755575615628914e-16 37.5
    endloop
  endfacet
  facet normal -3.694192190326738e-15 1 3.8251213423354874e-14
    outer loop
      vertex 0.07821723073720932 0 30.99384418129921
      vertex 67.52081298828125 2.7755575615628914e-16 37.5
      vertex 0.10395584255456924 2.7755575615628914e-16 30.98907381296158
    endloop
  endfacet
  facet normal 0 0 -1
    outer loop
      vertex 17.520814895629883 2.7755575615628914e-16 37.5
      vertex 17.520814895629883 0.4000000059604645 37.5
      vertex 32.479183197021484 2.7755575615628914e-16 37.5
    endloop
  endfacet
  facet normal -4.263529280434549e-18 1 4.263529280434553e-18
    outer loop
      vertex 0 4.707671335244512e-34 30
      vertex 0.5000000000000003 0 30.5
      vertex 72.6 2.7755575615628914e-16 37.5
    endloop
  endfacet
  facet normal 2.0524953570268927e-15 1 -2.2751969273558e-14
    outer loop
      vertex 0.1791839748620987 2.7755575615628914e-16 30.966790199279785
      vertex 72.6 2.7755575615628914e-16 37.5
      vertex 0.20336832106113426 0 30.956772714853287
    endloop
  endfacet
  facet normal -1.874601725103645e-15 1 2.0698852260309178e-14
    outer loop
      vertex 0.22699524462223053 2.7755575615628914e-16 30.945503264665604
      vertex 0.20336832106113426 0 30.956772714853287
      vertex 72.6 2.7755575615628914e-16 37.5
    endloop
  endfacet
  facet normal 0 1 0
    outer loop
      vertex 0.29389262199401855 2.7755575615628914e-16 30.904508501291275
      vertex 0.2723195254802704 2.7755575615628914e-16 30.919335275888443
      vertex 72.6 2.7755575615628914e-16 37.5
    endloop
  endfacet
  facet normal 0 1 0
    outer loop
      vertex 0.25 2.7755575615628914e-16 30.933012694120407
      vertex 0.22699524462223053 2.7755575615628914e-16 30.945503264665604
      vertex 72.6 2.7755575615628914e-16 37.5
    endloop
  endfacet
  facet normal 0 1 0
    outer loop
      vertex 0.2723195254802704 2.7755575615628914e-16 30.919335275888443
      vertex 0.25 2.7755575615628914e-16 30.933012694120407
      vertex 72.6 2.7755575615628914e-16 37.5
    endloop
  endfacet
  facet normal 2.9686473838424483e-15 1 -3.305446654507696e-14
    outer loop
      vertex 0.12940952181816098 0 30.982962906360626
      vertex 0.10395584255456924 2.7755575615628914e-16 30.98907381296158
      vertex 72.6 2.7755575615628914e-16 37.5
    endloop
  endfacet
  facet normal -2.9379747275309885e-18 1 -9.918463239258013e-18
    outer loop
      vertex 0.12940952181816098 0 30.982962906360626
      vertex 72.6 2.7755575615628914e-16 37.5
      vertex 0.15450850129127497 0 30.97552827000618
    endloop
  endfacet
  facet normal -2.2837096381651693e-15 1 2.5314986140834135e-14
    outer loop
      vertex 0.1791839748620987 2.7755575615628914e-16 30.966790199279785
      vertex 0.15450850129127497 0 30.97552827000618
      vertex 72.6 2.7755575615628914e-16 37.5
    endloop
  endfacet
  facet normal 1.0138043353539635e-15 1 -1.0561084595044728e-14
    outer loop
      vertex 0.4972609579563138 0 30.552264232188463
      vertex 0.4938441812992096 2.7755575615628914e-16 30.57821723073721
      vertex 72.6 2.7755575615628914e-16 37.5
    endloop
  endfacet
  facet normal 1.023324947081553e-15 1 -1.0579897777248038e-14
    outer loop
      vertex 0.4993147552013397 2.7755575615628914e-16 30.52616797760129
      vertex 72.6 2.7755575615628914e-16 37.5
      vertex 0.5000000000000003 0 30.5
    endloop
  endfacet
  facet normal -1.0209646871525327e-15 1 1.0555495646870989e-14
    outer loop
      vertex 0.4993147552013397 2.7755575615628914e-16 30.52616797760129
      vertex 0.4972609579563138 0 30.552264232188463
      vertex 72.6 2.7755575615628914e-16 37.5
    endloop
  endfacet
  facet normal 0 1 0
    outer loop
      vertex 0.4938441812992096 2.7755575615628914e-16 30.57821723073721
      vertex 0.48907381296157837 2.7755575615628914e-16 30.60395584255457
      vertex 72.6 2.7755575615628914e-16 37.5
    endloop
  endfacet
  facet normal 0 1 0
    outer loop
      vertex 0.48907381296157837 2.7755575615628914e-16 30.60395584255457
      vertex 0.4829629063606262 2.7755575615628914e-16 30.62940952181816
      vertex 72.6 2.7755575615628914e-16 37.5
    endloop
  endfacet
  facet normal 0 1 0
    outer loop
      vertex 0.4829629063606262 2.7755575615628914e-16 30.62940952181816
      vertex 0.4755282700061798 2.7755575615628914e-16 30.654508501291275
      vertex 72.6 2.7755575615628914e-16 37.5
    endloop
  endfacet
  facet normal 0 1 0
    outer loop
      vertex 0.4755282700061798 2.7755575615628914e-16 30.654508501291275
      vertex 0.46679019927978516 2.7755575615628914e-16 30.6791839748621
      vertex 72.6 2.7755575615628914e-16 37.5
    endloop
  endfacet
  facet normal 0 1 0
    outer loop
      vertex 0.46679019927978516 2.7755575615628914e-16 30.6791839748621
      vertex 0.45677271485328674 2.7755575615628914e-16 30.703368321061134
      vertex 72.6 2.7755575615628914e-16 37.5
    endloop
  endfacet
  facet normal 0 1 0
    outer loop
      vertex 0.3885729908943176 2.7755575615628914e-16 30.81466019153595
      vertex 0.3715724050998688 2.7755575615628914e-16 30.834565311670303
      vertex 72.6 2.7755575615628914e-16 37.5
    endloop
  endfacet
  facet normal 0 1 0
    outer loop
      vertex 0.44550326466560364 2.7755575615628914e-16 30.72699524462223
      vertex 0.4330126941204071 2.7755575615628914e-16 30.75
      vertex 72.6 2.7755575615628914e-16 37.5
    endloop
  endfacet
  facet normal 0 1 0
    outer loop
      vertex 0.4330126941204071 2.7755575615628914e-16 30.75
      vertex 0.419335275888443 2.7755575615628914e-16 30.77231952548027
      vertex 72.6 2.7755575615628914e-16 37.5
    endloop
  endfacet
  facet normal 0 1 0
    outer loop
      vertex 0.45677271485328674 2.7755575615628914e-16 30.703368321061134
      vertex 0.44550326466560364 2.7755575615628914e-16 30.72699524462223
      vertex 72.6 2.7755575615628914e-16 37.5
    endloop
  endfacet
  facet normal 0 1 0
    outer loop
      vertex 0.419335275888443 2.7755575615628914e-16 30.77231952548027
      vertex 0.404508501291275 2.7755575615628914e-16 30.79389262199402
      vertex 72.6 2.7755575615628914e-16 37.5
    endloop
  endfacet
  facet normal 0 1 0
    outer loop
      vertex 0.404508501291275 2.7755575615628914e-16 30.79389262199402
      vertex 0.3885729908943176 2.7755575615628914e-16 30.81466019153595
      vertex 72.6 2.7755575615628914e-16 37.5
    endloop
  endfacet
  facet normal -1.2403127773349752e-15 1 1.3440359979765733e-14
    outer loop
      vertex 0.3715724050998688 2.7755575615628914e-16 30.834565311670303
      vertex 0.35355338454246504 0 30.853553384542465
      vertex 72.6 2.7755575615628914e-16 37.5
    endloop
  endfacet
  facet normal 1.2883339947555125e-15 1 -1.40458675638837e-14
    outer loop
      vertex 0.33456531167030334 2.7755575615628914e-16 30.87157240509987
      vertex 72.6 2.7755575615628914e-16 37.5
      vertex 0.35355338454246504 0 30.853553384542465
    endloop
  endfacet
  facet normal 0 1 0
    outer loop
      vertex 0.33456531167030334 2.7755575615628914e-16 30.87157240509987
      vertex 0.3146601915359497 2.7755575615628914e-16 30.888572990894318
      vertex 72.6 2.7755575615628914e-16 37.5
    endloop
  endfacet
  facet normal 0 1 0
    outer loop
      vertex 0.3146601915359497 2.7755575615628914e-16 30.888572990894318
      vertex 0.29389262199401855 2.7755575615628914e-16 30.904508501291275
      vertex 72.6 2.7755575615628914e-16 37.5
    endloop
  endfacet
  facet normal 0 -1 0
    outer loop
      vertex 8.979185104370117 2.200000047683716 39
      vertex 0 2.200000047683716 39
      vertex 72.6 2.200000047683716 22
    endloop
  endfacet
  facet normal 0 1 0
    outer loop
      vertex 42.520816802978516 2.7755575615628914e-16 37.5
      vertex 0.05226423218846321 2.7755575615628914e-16 30.997260957956314
      vertex 32.479183197021484 2.7755575615628914e-16 37.5
    endloop
  endfacet
  facet normal 0 0.7071067882110224 -0.7071067741620727
    outer loop
      vertex 17.520814895629883 0.4000000059604645 37.5
      vertex 16.020814895629883 1.899999976158142 39
      vertex 32.479183197021484 0.4000000059604645 37.5
    endloop
  endfacet
  facet normal 0 0 -1
    outer loop
      vertex 16.020814895629883 1.899999976158142 39
      vertex 16.020814895629883 2.200000047683716 39
      vertex 33.979183197021484 1.899999976158142 39
    endloop
  endfacet
  facet normal 0 -1 0
    outer loop
      vertex 8.979185104370117 2.200000047683716 39
      vertex 72.6 2.200000047683716 22
      vertex 11.179184913635254 2.200000047683716 39
    endloop
  endfacet
  facet normal 0 0 -1
    outer loop
      vertex 17.520814895629883 0.4000000059604645 37.5
      vertex 32.479183197021484 0.4000000059604645 37.5
      vertex 32.479183197021484 2.7755575615628914e-16 37.5
    endloop
  endfacet
  facet normal 0 -1 0
    outer loop
      vertex 11.179184913635254 2.200000047683716 39
      vertex 72.6 2.200000047683716 22
      vertex 13.820815086364746 2.200000047683716 39
    endloop
  endfacet
  facet normal 0 -1 0
    outer loop
      vertex 13.820815086364746 2.200000047683716 39
      vertex 72.6 2.200000047683716 22
      vertex 16.020814895629883 2.200000047683716 39
    endloop
  endfacet
  facet normal 0 1 0
    outer loop
      vertex 0.05226423218846321 2.7755575615628914e-16 30.997260957956314
      vertex 42.520816802978516 2.7755575615628914e-16 37.5
      vertex 57.479183197021484 2.7755575615628914e-16 37.5
    endloop
  endfacet
  facet normal 0 0.7071067882110224 -0.7071067741620727
    outer loop
      vertex 16.020814895629883 1.899999976158142 39
      vertex 33.979183197021484 1.899999976158142 39
      vertex 32.479183197021484 0.4000000059604645 37.5
    endloop
  endfacet
  facet normal 0 0 -1
    outer loop
      vertex 16.020814895629883 2.200000047683716 39
      vertex 33.979183197021484 2.200000047683716 39
      vertex 33.979183197021484 1.899999976158142 39
    endloop
  endfacet
  facet normal 0.7071067811865476 0 -0.7071067811865476
    outer loop
      vertex 32.479183197021484 2.7755575615628914e-16 37.5
      vertex 32.479183197021484 0.4000000059604645 37.5
      vertex 33.979183197021484 2.7755575615628914e-16 39
    endloop
  endfacet
  facet normal 0.7071067811865476 0 -0.7071067811865476
    outer loop
      vertex 32.479183197021484 0.4000000059604645 37.5
      vertex 33.979183197021484 1 39
      vertex 33.979183197021484 2.7755575615628914e-16 39
    endloop
  endfacet
  facet normal 0.7071067811865476 0 -0.7071067811865476
    outer loop
      vertex 32.479183197021484 0.4000000059604645 37.5
      vertex 33.979183197021484 1.899999976158142 39
      vertex 33.979183197021484 1 39
    endloop
  endfacet
  facet normal 0 0 -1
    outer loop
      vertex 33.979183197021484 2.7755575615628914e-16 39
      vertex 33.979183197021484 1 39
      vertex 36.17918395996094 1 39
    endloop
  endfacet
  facet normal 0 0.7071068865536516 -0.7071066758194279
    outer loop
      vertex 33.979183197021484 1 39
      vertex 34.7791862487793 1.7999999523162842 39.80000019073486
      vertex 36.17918395996094 1 39
    endloop
  endfacet
  facet normal 0 1 0
    outer loop
      vertex 32.479183197021484 2.7755575615628914e-16 37.5
      vertex 33.979183197021484 2.7755575615628914e-16 39
      vertex 41.020816802978516 2.7755575615628914e-16 39
    endloop
  endfacet
  facet normal 0.7071055167825242 0 -0.7071080455883101
    outer loop
      vertex 33.979183197021484 1 39
      vertex 33.979183197021484 1.899999976158142 39
      vertex 34.7791862487793 1.7999999523162842 39.80000019073486
    endloop
  endfacet
  facet normal 0.7071055167825241 0 -0.70710804558831
    outer loop
      vertex 33.979183197021484 1.899999976158142 39
      vertex 33.979183197021484 2.200000047683716 39
      vertex 34.7791862487793 2.200000047683716 39.80000019073486
    endloop
  endfacet
  facet normal 0 -1 0
    outer loop
      vertex 33.979183197021484 2.200000047683716 39
      vertex 36.17918395996094 2.200000047683716 39
      vertex 34.7791862487793 2.200000047683716 39.80000019073486
    endloop
  endfacet
  facet normal -0.7071072026550578 0 -0.707106359717786
    outer loop
      vertex 36.17918395996094 1 39
      vertex 35.37918472290039 1.7999999523162842 39.80000019073486
      vertex 36.17918395996094 2.200000047683716 39
    endloop
  endfacet
  facet normal 0.7071055167825241 0 -0.70710804558831
    outer loop
      vertex 33.979183197021484 1.899999976158142 39
      vertex 34.7791862487793 2.200000047683716 39.80000019073486
      vertex 34.7791862487793 1.7999999523162842 39.80000019073486
    endloop
  endfacet
  facet normal 0 0 -1
    outer loop
      vertex 34.7791862487793 1.7999999523162842 39.80000019073486
      vertex 34.7791862487793 2.200000047683716 39.80000019073486
      vertex 35.37918472290039 1.7999999523162842 39.80000019073486
    endloop
  endfacet
  facet normal 0 0.7071068865536516 -0.7071066758194279
    outer loop
      vertex 36.17918395996094 1 39
      vertex 34.7791862487793 1.7999999523162842 39.80000019073486
      vertex 35.37918472290039 1.7999999523162842 39.80000019073486
    endloop
  endfacet
  facet normal 0 -1 0
    outer loop
      vertex 36.17918395996094 2.200000047683716 39
      vertex 35.37918472290039 2.200000047683716 39.80000019073486
      vertex 34.7791862487793 2.200000047683716 39.80000019073486
    endloop
  endfacet
  facet normal -0.7071072026550578 0 -0.7071063597177861
    outer loop
      vertex 36.17918395996094 2.200000047683716 39
      vertex 35.37918472290039 1.7999999523162842 39.80000019073486
      vertex 35.37918472290039 2.200000047683716 39.80000019073486
    endloop
  endfacet
  facet normal 0 0 -1
    outer loop
      vertex 35.37918472290039 1.7999999523162842 39.80000019073486
      vertex 34.7791862487793 2.200000047683716 39.80000019073486
      vertex 35.37918472290039 2.200000047683716 39.80000019073486
    endloop
  endfacet
  facet normal 0.7071072026550578 0 0.7071063597177861
    outer loop
      vertex 39.62081527709961 1.7999999523162842 21.199999809265137
      vertex 39.62081527709961 2.200000047683716 21.199999809265137
      vertex 38.82081604003906 2.200000047683716 22
    endloop
  endfacet
  facet normal 0 0 1
    outer loop
      vertex 39.62081527709961 1.7999999523162842 21.199999809265137
      vertex 40.2208137512207 2.200000047683716 21.199999809265137
      vertex 39.62081527709961 2.200000047683716 21.199999809265137
    endloop
  endfacet
  facet normal 0 0 1
    outer loop
      vertex 39.62081527709961 1.7999999523162842 21.199999809265137
      vertex 40.2208137512207 1.7999999523162842 21.199999809265137
      vertex 40.2208137512207 2.200000047683716 21.199999809265137
    endloop
  endfacet
  facet normal 0 0.7071068865536516 0.7071066758194279
    outer loop
      vertex 39.62081527709961 1.7999999523162842 21.199999809265137
      vertex 41.020816802978516 1 22
      vertex 40.2208137512207 1.7999999523162842 21.199999809265137
    endloop
  endfacet
  facet normal -0.7071055167825241 0 0.70710804558831
    outer loop
      vertex 40.2208137512207 1.7999999523162842 21.199999809265137
      vertex 41.020816802978516 1.899999976158142 22
      vertex 40.2208137512207 2.200000047683716 21.199999809265137
    endloop
  endfacet
  facet normal 0 -1 0
    outer loop
      vertex 39.62081527709961 2.200000047683716 21.199999809265137
      vertex 40.2208137512207 2.200000047683716 21.199999809265137
      vertex 41.020816802978516 2.200000047683716 22
    endloop
  endfacet
  facet normal 0.7071055167825241 0 0.70710804558831
    outer loop
      vertex 59.7791862487793 1.7999999523162842 21.199999809265137
      vertex 59.7791862487793 2.200000047683716 21.199999809265137
      vertex 58.979183197021484 1.899999976158142 22
    endloop
  endfacet
  facet normal 0 0 1
    outer loop
      vertex 59.7791862487793 1.7999999523162842 21.199999809265137
      vertex 60.37918472290039 2.200000047683716 21.199999809265137
      vertex 59.7791862487793 2.200000047683716 21.199999809265137
    endloop
  endfacet
  facet normal 0 0.7071068865536516 0.7071066758194279
    outer loop
      vertex 61.17918395996094 1 22
      vertex 60.37918472290039 1.7999999523162842 21.199999809265137
      vertex 59.7791862487793 1.7999999523162842 21.199999809265137
    endloop
  endfacet
  facet normal 0 0 1
    outer loop
      vertex 59.7791862487793 1.7999999523162842 21.199999809265137
      vertex 60.37918472290039 1.7999999523162842 21.199999809265137
      vertex 60.37918472290039 2.200000047683716 21.199999809265137
    endloop
  endfacet
  facet normal 0 -1 0
    outer loop
      vertex 59.7791862487793 2.200000047683716 21.199999809265137
      vertex 60.37918472290039 2.200000047683716 21.199999809265137
      vertex 61.17918395996094 2.200000047683716 22
    endloop
  endfacet
  facet normal -0.7071072026550578 0 0.7071063597177861
    outer loop
      vertex 60.37918472290039 1.7999999523162842 21.199999809265137
      vertex 61.17918395996094 2.200000047683716 22
      vertex 60.37918472290039 2.200000047683716 21.199999809265137
    endloop
  endfacet
  facet normal 0.7071055167825241 0 0.70710804558831
    outer loop
      vertex 63.82081604003906 2.200000047683716 22
      vertex 64.62081909179688 1.7999999523162842 21.199999809265137
      vertex 64.62081909179688 2.200000047683716 21.199999809265137
    endloop
  endfacet
  facet normal 0 0 1
    outer loop
      vertex 64.62081909179688 1.7999999523162842 21.199999809265137
      vertex 65.22081756591797 2.200000047683716 21.199999809265137
      vertex 64.62081909179688 2.200000047683716 21.199999809265137
    endloop
  endfacet
  facet normal 0 0 1
    outer loop
      vertex 64.62081909179688 1.7999999523162842 21.199999809265137
      vertex 65.22081756591797 1.7999999523162842 21.199999809265137
      vertex 65.22081756591797 2.200000047683716 21.199999809265137
    endloop
  endfacet
  facet normal 0 0.7071068865536516 0.7071066758194279
    outer loop
      vertex 66.02081298828125 1 22
      vertex 65.22081756591797 1.7999999523162842 21.199999809265137
      vertex 64.62081909179688 1.7999999523162842 21.199999809265137
    endloop
  endfacet
  facet normal -0.7071088885316109 0 0.7071046738352039
    outer loop
      vertex 65.22081756591797 1.7999999523162842 21.199999809265137
      vertex 66.02081298828125 1.899999976158142 22
      vertex 65.22081756591797 2.200000047683716 21.199999809265137
    endloop
  endfacet
  facet normal 0 -1 0
    outer loop
      vertex 64.62081909179688 2.200000047683716 21.199999809265137
      vertex 65.22081756591797 2.200000047683716 21.199999809265137
      vertex 66.02081298828125 2.200000047683716 22
    endloop
  endfacet
  facet normal 0 0 1
    outer loop
      vertex 33.979183197021484 2.7755575615628914e-16 22
      vertex 38.82081604003906 1 22
      vertex 36.17918395996094 1 22
    endloop
  endfacet
  facet normal 0 0 1
    outer loop
      vertex 33.979183197021484 2.7755575615628914e-16 22
      vertex 41.020816802978516 2.7755575615628914e-16 22
      vertex 38.82081604003906 1 22
    endloop
  endfacet
  facet normal 0 0 1
    outer loop
      vertex 36.17918395996094 1 22
      vertex 38.82081604003906 1 22
      vertex 38.82081604003906 2.200000047683716 22
    endloop
  endfacet
  facet normal 0 0 1
    outer loop
      vertex 36.17918395996094 1 22
      vertex 38.82081604003906 2.200000047683716 22
      vertex 36.17918395996094 2.200000047683716 22
    endloop
  endfacet
  facet normal 0 1 0
    outer loop
      vertex 41.020816802978516 2.7755575615628914e-16 22
      vertex 32.479183197021484 2.7755575615628914e-16 23.5
      vertex 42.520816802978516 2.7755575615628914e-16 23.5
    endloop
  endfacet
  facet normal 0 0 1
    outer loop
      vertex 38.82081604003906 1 22
      vertex 41.020816802978516 2.7755575615628914e-16 22
      vertex 41.020816802978516 1 22
    endloop
  endfacet
  facet normal 0 0.7071068865536516 0.7071066758194279
    outer loop
      vertex 38.82081604003906 1 22
      vertex 41.020816802978516 1 22
      vertex 39.62081527709961 1.7999999523162842 21.199999809265137
    endloop
  endfacet
  facet normal 0.7071072026550578 0 0.707106359717786
    outer loop
      vertex 38.82081604003906 1 22
      vertex 39.62081527709961 1.7999999523162842 21.199999809265137
      vertex 38.82081604003906 2.200000047683716 22
    endloop
  endfacet
  facet normal 0 -1 0
    outer loop
      vertex 39.62081527709961 2.200000047683716 21.199999809265137
      vertex 41.020816802978516 2.200000047683716 22
      vertex 38.82081604003906 2.200000047683716 22
    endloop
  endfacet
  facet normal -0.7071055167825242 0 0.7071080455883101
    outer loop
      vertex 41.020816802978516 1 22
      vertex 41.020816802978516 1.899999976158142 22
      vertex 40.2208137512207 1.7999999523162842 21.199999809265137
    endloop
  endfacet
  facet normal -0.7071055167825241 0 0.70710804558831
    outer loop
      vertex 41.020816802978516 1.899999976158142 22
      vertex 41.020816802978516 2.200000047683716 22
      vertex 40.2208137512207 2.200000047683716 21.199999809265137
    endloop
  endfacet
  facet normal -0.7071067811865476 0 0.7071067811865476
    outer loop
      vertex 41.020816802978516 2.7755575615628914e-16 22
      vertex 42.520816802978516 0.4000000059604645 23.5
      vertex 41.020816802978516 1 22
    endloop
  endfacet
  facet normal -0.7071067811865476 0 0.7071067811865476
    outer loop
      vertex 41.020816802978516 1 22
      vertex 42.520816802978516 0.4000000059604645 23.5
      vertex 41.020816802978516 1.899999976158142 22
    endloop
  endfacet
  facet normal -0.7071067811865476 0 0.7071067811865476
    outer loop
      vertex 41.020816802978516 2.7755575615628914e-16 22
      vertex 42.520816802978516 2.7755575615628914e-16 23.5
      vertex 42.520816802978516 0.4000000059604645 23.5
    endloop
  endfacet
  facet normal 0 1 4.2700885562506023e-17
    outer loop
      vertex 57.479183197021484 2.7755575615628914e-16 23.5
      vertex 0 4.707671335244512e-34 30
      vertex 67.52081298828125 2.7755575615628914e-16 23.5
    endloop
  endfacet
  facet normal 0 -1 0
    outer loop
      vertex 58.979183197021484 2.200000047683716 22
      vertex 61.17918395996094 2.200000047683716 22
      vertex 0 2.200000047683716 39
    endloop
  endfacet
  facet normal 0 -1 0
    outer loop
      vertex 61.17918395996094 2.200000047683716 22
      vertex 63.82081604003906 2.200000047683716 22
      vertex 0 2.200000047683716 39
    endloop
  endfacet
  facet normal 0 -1 0
    outer loop
      vertex 63.82081604003906 2.200000047683716 22
      vertex 66.02081298828125 2.200000047683716 22
      vertex 0 2.200000047683716 39
    endloop
  endfacet
  facet normal 0 0.7071067882110224 0.7071067741620727
    outer loop
      vertex 41.020816802978516 1.899999976158142 22
      vertex 42.520816802978516 0.4000000059604645 23.5
      vertex 58.979183197021484 1.899999976158142 22
    endloop
  endfacet
  facet normal 0 0 1
    outer loop
      vertex 42.520816802978516 2.7755575615628914e-16 23.5
      vertex 57.479183197021484 0.4000000059604645 23.5
      vertex 42.520816802978516 0.4000000059604645 23.5
    endloop
  endfacet
  facet normal 0 0 1
    outer loop
      vertex 41.020816802978516 1.899999976158142 22
      vertex 58.979183197021484 2.200000047683716 22
      vertex 41.020816802978516 2.200000047683716 22
    endloop
  endfacet
  facet normal 0 0.7071067882110224 0.7071067741620727
    outer loop
      vertex 58.979183197021484 1.899999976158142 22
      vertex 42.520816802978516 0.4000000059604645 23.5
      vertex 57.479183197021484 0.4000000059604645 23.5
    endloop
  endfacet
  facet normal 0 0 1
    outer loop
      vertex 42.520816802978516 2.7755575615628914e-16 23.5
      vertex 57.479183197021484 2.7755575615628914e-16 23.5
      vertex 57.479183197021484 0.4000000059604645 23.5
    endloop
  endfacet
  facet normal 0 0 1
    outer loop
      vertex 41.020816802978516 1.899999976158142 22
      vertex 58.979183197021484 1.899999976158142 22
      vertex 58.979183197021484 2.200000047683716 22
    endloop
  endfacet
  facet normal 0 -1 0
    outer loop
      vertex 66.02081298828125 2.200000047683716 22
      vertex 72.6 2.200000047683716 22
      vertex 0 2.200000047683716 39
    endloop
  endfacet
  facet normal -3.971947631183138e-18 1 1.4410189156808877e-18
    outer loop
      vertex 67.52081298828125 2.7755575615628914e-16 23.5
      vertex 0 4.707671335244512e-34 30
      vertex 72.6 2.7755575615628914e-16 37.5
    endloop
  endfacet
  facet normal 0 -1 0
    outer loop
      vertex 16.020814895629883 2.200000047683716 39
      vertex 72.6 2.200000047683716 22
      vertex 33.979183197021484 2.200000047683716 39
    endloop
  endfacet
  facet normal 0 1 -4.2660483992483595e-17
    outer loop
      vertex 0.07821723073720932 0 30.99384418129921
      vertex 57.479183197021484 2.7755575615628914e-16 37.5
      vertex 67.52081298828125 2.7755575615628914e-16 37.5
    endloop
  endfacet
  facet normal 0 0 -1
    outer loop
      vertex 33.979183197021484 2.7755575615628914e-16 39
      vertex 36.17918395996094 1 39
      vertex 41.020816802978516 2.7755575615628914e-16 39
    endloop
  endfacet
  facet normal 0 0 -1
    outer loop
      vertex 36.17918395996094 1 39
      vertex 36.17918395996094 2.200000047683716 39
      vertex 38.82081604003906 1 39
    endloop
  endfacet
  facet normal 0 0 -1
    outer loop
      vertex 38.82081604003906 1 39
      vertex 36.17918395996094 2.200000047683716 39
      vertex 38.82081604003906 2.200000047683716 39
    endloop
  endfacet
  facet normal 0 1 0
    outer loop
      vertex 32.479183197021484 2.7755575615628914e-16 37.5
      vertex 41.020816802978516 2.7755575615628914e-16 39
      vertex 42.520816802978516 2.7755575615628914e-16 37.5
    endloop
  endfacet
  facet normal 0 0 -1
    outer loop
      vertex 36.17918395996094 1 39
      vertex 38.82081604003906 1 39
      vertex 41.020816802978516 2.7755575615628914e-16 39
    endloop
  endfacet
  facet normal 0 0 -1
    outer loop
      vertex 38.82081604003906 1 39
      vertex 41.020816802978516 1 39
      vertex 41.020816802978516 2.7755575615628914e-16 39
    endloop
  endfacet
  facet normal 0 0.7071068865536516 -0.7071066758194279
    outer loop
      vertex 38.82081604003906 1 39
      vertex 39.62081527709961 1.7999999523162842 39.80000019073486
      vertex 41.020816802978516 1 39
    endloop
  endfacet
  facet normal 0.7071072026550578 0 -0.707106359717786
    outer loop
      vertex 38.82081604003906 1 39
      vertex 38.82081604003906 2.200000047683716 39
      vertex 39.62081527709961 1.7999999523162842 39.80000019073486
    endloop
  endfacet
  facet normal 0 -1 0
    outer loop
      vertex 38.82081604003906 2.200000047683716 39
      vertex 41.020816802978516 2.200000047683716 39
      vertex 39.62081527709961 2.200000047683716 39.80000019073486
    endloop
  endfacet
  facet normal -0.7071055167825242 0 -0.7071080455883101
    outer loop
      vertex 41.020816802978516 1 39
      vertex 40.2208137512207 1.7999999523162842 39.80000019073486
      vertex 41.020816802978516 1.899999976158142 39
    endloop
  endfacet
  facet normal -0.7071055167825241 0 -0.70710804558831
    outer loop
      vertex 41.020816802978516 1.899999976158142 39
      vertex 40.2208137512207 2.200000047683716 39.80000019073486
      vertex 41.020816802978516 2.200000047683716 39
    endloop
  endfacet
  facet normal 0.7071072026550578 0 -0.7071063597177861
    outer loop
      vertex 38.82081604003906 2.200000047683716 39
      vertex 39.62081527709961 2.200000047683716 39.80000019073486
      vertex 39.62081527709961 1.7999999523162842 39.80000019073486
    endloop
  endfacet
  facet normal 0 0 -1
    outer loop
      vertex 39.62081527709961 1.7999999523162842 39.80000019073486
      vertex 39.62081527709961 2.200000047683716 39.80000019073486
      vertex 40.2208137512207 1.7999999523162842 39.80000019073486
    endloop
  endfacet
  facet normal 0 0 -1
    outer loop
      vertex 39.62081527709961 2.200000047683716 39.80000019073486
      vertex 40.2208137512207 2.200000047683716 39.80000019073486
      vertex 40.2208137512207 1.7999999523162842 39.80000019073486
    endloop
  endfacet
  facet normal 0 0.7071068865536516 -0.7071066758194279
    outer loop
      vertex 39.62081527709961 1.7999999523162842 39.80000019073486
      vertex 40.2208137512207 1.7999999523162842 39.80000019073486
      vertex 41.020816802978516 1 39
    endloop
  endfacet
  facet normal -0.7071055167825241 0 -0.70710804558831
    outer loop
      vertex 41.020816802978516 1.899999976158142 39
      vertex 40.2208137512207 1.7999999523162842 39.80000019073486
      vertex 40.2208137512207 2.200000047683716 39.80000019073486
    endloop
  endfacet
  facet normal 0 -1 0
    outer loop
      vertex 39.62081527709961 2.200000047683716 39.80000019073486
      vertex 41.020816802978516 2.200000047683716 39
      vertex 40.2208137512207 2.200000047683716 39.80000019073486
    endloop
  endfacet
  facet normal -0.7071067811865476 0 -0.7071067811865476
    outer loop
      vertex 42.520816802978516 0.4000000059604645 37.5
      vertex 41.020816802978516 2.7755575615628914e-16 39
      vertex 41.020816802978516 1 39
    endloop
  endfacet
  facet normal -0.7071067811865476 0 -0.7071067811865476
    outer loop
      vertex 42.520816802978516 0.4000000059604645 37.5
      vertex 41.020816802978516 1 39
      vertex 41.020816802978516 1.899999976158142 39
    endloop
  endfacet
  facet normal -0.7071067811865476 0 -0.7071067811865476
    outer loop
      vertex 42.520816802978516 2.7755575615628914e-16 37.5
      vertex 41.020816802978516 2.7755575615628914e-16 39
      vertex 42.520816802978516 0.4000000059604645 37.5
    endloop
  endfacet
  facet normal 0 -1 0
    outer loop
      vertex 33.979183197021484 2.200000047683716 39
      vertex 72.6 2.200000047683716 22
      vertex 36.17918395996094 2.200000047683716 39
    endloop
  endfacet
  facet normal 0 -1 0
    outer loop
      vertex 36.17918395996094 2.200000047683716 39
      vertex 72.6 2.200000047683716 22
      vertex 38.82081604003906 2.200000047683716 39
    endloop
  endfacet
  facet normal 0 1 0
    outer loop
      vertex 0.10395584255456924 2.7755575615628914e-16 30.98907381296158
      vertex 67.52081298828125 2.7755575615628914e-16 37.5
      vertex 72.6 2.7755575615628914e-16 37.5
    endloop
  endfacet
  facet normal 0 0 -1
    outer loop
      vertex 42.520816802978516 2.7755575615628914e-16 37.5
      vertex 42.520816802978516 0.4000000059604645 37.5
      vertex 57.479183197021484 2.7755575615628914e-16 37.5
    endloop
  endfacet
  facet normal 0 -1 0
    outer loop
      vertex 38.82081604003906 2.200000047683716 39
      vertex 72.6 2.200000047683716 22
      vertex 41.020816802978516 2.200000047683716 39
    endloop
  endfacet
  facet normal 0 0 -1
    outer loop
      vertex 42.520816802978516 0.4000000059604645 37.5
      vertex 57.479183197021484 0.4000000059604645 37.5
      vertex 57.479183197021484 2.7755575615628914e-16 37.5
    endloop
  endfacet
  facet normal 0 0.7071067882110224 -0.7071067741620727
    outer loop
      vertex 42.520816802978516 0.4000000059604645 37.5
      vertex 41.020816802978516 1.899999976158142 39
      vertex 57.479183197021484 0.4000000059604645 37.5
    endloop
  endfacet
  facet normal 0 0 -1
    outer loop
      vertex 41.020816802978516 1.899999976158142 39
      vertex 41.020816802978516 2.200000047683716 39
      vertex 58.979183197021484 1.899999976158142 39
    endloop
  endfacet
  facet normal 0 0.7071067882110224 -0.7071067741620727
    outer loop
      vertex 41.020816802978516 1.899999976158142 39
      vertex 58.979183197021484 1.899999976158142 39
      vertex 57.479183197021484 0.4000000059604645 37.5
    endloop
  endfacet
  facet normal 0 0 -1
    outer loop
      vertex 41.020816802978516 2.200000047683716 39
      vertex 58.979183197021484 2.200000047683716 39
      vertex 58.979183197021484 1.899999976158142 39
    endloop
  endfacet
  facet normal 0.7071067811865476 0 0.7071067811865476
    outer loop
      vertex 58.979183197021484 2.7755575615628914e-16 22
      vertex 57.479183197021484 0.4000000059604645 23.5
      vertex 57.479183197021484 2.7755575615628914e-16 23.5
    endloop
  endfacet
  facet normal 0.7071067811865476 0 0.7071067811865476
    outer loop
      vertex 58.979183197021484 2.7755575615628914e-16 22
      vertex 58.979183197021484 1 22
      vertex 57.479183197021484 0.4000000059604645 23.5
    endloop
  endfacet
  facet normal 0.7071067811865476 0 0.7071067811865476
    outer loop
      vertex 58.979183197021484 1 22
      vertex 58.979183197021484 1.899999976158142 22
      vertex 57.479183197021484 0.4000000059604645 23.5
    endloop
  endfacet
  facet normal 0 0 1
    outer loop
      vertex 58.979183197021484 2.7755575615628914e-16 22
      vertex 61.17918395996094 1 22
      vertex 58.979183197021484 1 22
    endloop
  endfacet
  facet normal 0 0.7071068865536516 0.7071066758194279
    outer loop
      vertex 58.979183197021484 1 22
      vertex 61.17918395996094 1 22
      vertex 59.7791862487793 1.7999999523162842 21.199999809265137
    endloop
  endfacet
  facet normal 0 1 0
    outer loop
      vertex 58.979183197021484 2.7755575615628914e-16 22
      vertex 57.479183197021484 2.7755575615628914e-16 23.5
      vertex 66.02081298828125 2.7755575615628914e-16 22
    endloop
  endfacet
  facet normal 0.7071055167825242 0 0.7071080455883101
    outer loop
      vertex 58.979183197021484 1 22
      vertex 59.7791862487793 1.7999999523162842 21.199999809265137
      vertex 58.979183197021484 1.899999976158142 22
    endloop
  endfacet
  facet normal 0.7071055167825241 0 0.70710804558831
    outer loop
      vertex 58.979183197021484 1.899999976158142 22
      vertex 59.7791862487793 2.200000047683716 21.199999809265137
      vertex 58.979183197021484 2.200000047683716 22
    endloop
  endfacet
  facet normal 0 -1 0
    outer loop
      vertex 59.7791862487793 2.200000047683716 21.199999809265137
      vertex 61.17918395996094 2.200000047683716 22
      vertex 58.979183197021484 2.200000047683716 22
    endloop
  endfacet
  facet normal -0.7071072026550578 0 0.707106359717786
    outer loop
      vertex 61.17918395996094 1 22
      vertex 61.17918395996094 2.200000047683716 22
      vertex 60.37918472290039 1.7999999523162842 21.199999809265137
    endloop
  endfacet
  facet normal 0 0 1
    outer loop
      vertex 58.979183197021484 2.7755575615628914e-16 22
      vertex 63.82081604003906 1 22
      vertex 61.17918395996094 1 22
    endloop
  endfacet
  facet normal 0 0 1
    outer loop
      vertex 58.979183197021484 2.7755575615628914e-16 22
      vertex 66.02081298828125 2.7755575615628914e-16 22
      vertex 63.82081604003906 1 22
    endloop
  endfacet
  facet normal 0 0 1
    outer loop
      vertex 61.17918395996094 1 22
      vertex 63.82081604003906 1 22
      vertex 63.82081604003906 2.200000047683716 22
    endloop
  endfacet
  facet normal 0 0 1
    outer loop
      vertex 61.17918395996094 1 22
      vertex 63.82081604003906 2.200000047683716 22
      vertex 61.17918395996094 2.200000047683716 22
    endloop
  endfacet
  facet normal 0 1 0
    outer loop
      vertex 66.02081298828125 2.7755575615628914e-16 22
      vertex 57.479183197021484 2.7755575615628914e-16 23.5
      vertex 67.52081298828125 2.7755575615628914e-16 23.5
    endloop
  endfacet
  facet normal 0 0 1
    outer loop
      vertex 63.82081604003906 1 22
      vertex 66.02081298828125 2.7755575615628914e-16 22
      vertex 66.02081298828125 1 22
    endloop
  endfacet
  facet normal 0 0.7071068865536516 0.7071066758194279
    outer loop
      vertex 63.82081604003906 1 22
      vertex 66.02081298828125 1 22
      vertex 64.62081909179688 1.7999999523162842 21.199999809265137
    endloop
  endfacet
  facet normal 0.7071055167825241 0 0.70710804558831
    outer loop
      vertex 63.82081604003906 1 22
      vertex 64.62081909179688 1.7999999523162842 21.199999809265137
      vertex 63.82081604003906 2.200000047683716 22
    endloop
  endfacet
  facet normal 0 -1 0
    outer loop
      vertex 63.82081604003906 2.200000047683716 22
      vertex 64.62081909179688 2.200000047683716 21.199999809265137
      vertex 66.02081298828125 2.200000047683716 22
    endloop
  endfacet
  facet normal -0.7071088885316108 0 0.7071046738352038
    outer loop
      vertex 66.02081298828125 1 22
      vertex 66.02081298828125 1.899999976158142 22
      vertex 65.22081756591797 1.7999999523162842 21.199999809265137
    endloop
  endfacet
  facet normal -0.7071088885316108 0 0.7071046738352038
    outer loop
      vertex 66.02081298828125 1.899999976158142 22
      vertex 66.02081298828125 2.200000047683716 22
      vertex 65.22081756591797 2.200000047683716 21.199999809265137
    endloop
  endfacet
  facet normal -0.7071067811865476 0 0.7071067811865476
    outer loop
      vertex 66.02081298828125 2.7755575615628914e-16 22
      vertex 67.52081298828125 0.4000000059604645 23.5
      vertex 66.02081298828125 1 22
    endloop
  endfacet
  facet normal -0.7071067811865476 0 0.7071067811865476
    outer loop
      vertex 66.02081298828125 1 22
      vertex 67.52081298828125 0.4000000059604645 23.5
      vertex 66.02081298828125 1.899999976158142 22
    endloop
  endfacet
  facet normal -0.7071067811865476 0 0.7071067811865476
    outer loop
      vertex 66.02081298828125 2.7755575615628914e-16 22
      vertex 67.52081298828125 2.7755575615628914e-16 23.5
      vertex 67.52081298828125 0.4000000059604645 23.5
    endloop
  endfacet
  facet normal 0 0.7071067882110224 0.7071067741620727
    outer loop
      vertex 66.02081298828125 1.899999976158142 22
      vertex 67.52081298828125 0.4000000059604645 23.5
      vertex 72.6 1.899999976158142 22
    endloop
  endfacet
  facet normal 0 0 1
    outer loop
      vertex 67.52081298828125 2.7755575615628914e-16 23.5
      vertex 72.6 2.7755575615628914e-16 23.5
      vertex 67.52081298828125 0.4000000059604645 23.5
    endloop
  endfacet
  facet normal 0 0 1
    outer loop
      vertex 66.02081298828125 1.899999976158142 22
      vertex 72.6 1.899999976158142 22
      vertex 66.02081298828125 2.200000047683716 22
    endloop
  endfacet
  facet normal 0 0.7071067882110222 0.7071067741620727
    outer loop
      vertex 67.52081298828125 0.4000000059604645 23.5
      vertex 72.6 0.4000000059604645 23.5
      vertex 72.6 1.899999976158142 22
    endloop
  endfacet
  facet normal 0 0 1
    outer loop
      vertex 67.52081298828125 0.4000000059604645 23.5
      vertex 72.6 2.7755575615628914e-16 23.5
      vertex 72.6 0.4000000059604645 23.5
    endloop
  endfacet
  facet normal 0 0 1
    outer loop
      vertex 66.02081298828125 2.200000047683716 22
      vertex 72.6 1.899999976158142 22
      vertex 72.6 2.200000047683716 22
    endloop
  endfacet
  facet normal 0 1 0
    outer loop
      vertex 67.52081298828125 2.7755575615628914e-16 23.5
      vertex 72.6 2.7755575615628914e-16 37.5
      vertex 72.6 2.7755575615628914e-16 23.5
    endloop
  endfacet
  facet normal 0 -1 0
    outer loop
      vertex 41.020816802978516 2.200000047683716 39
      vertex 72.6 2.200000047683716 22
      vertex 58.979183197021484 2.200000047683716 39
    endloop
  endfacet
  facet normal 0.7071067811865476 0 -0.7071067811865476
    outer loop
      vertex 57.479183197021484 2.7755575615628914e-16 37.5
      vertex 57.479183197021484 0.4000000059604645 37.5
      vertex 58.979183197021484 2.7755575615628914e-16 39
    endloop
  endfacet
  facet normal 0.7071067811865476 0 -0.7071067811865476
    outer loop
      vertex 57.479183197021484 0.4000000059604645 37.5
      vertex 58.979183197021484 1 39
      vertex 58.979183197021484 2.7755575615628914e-16 39
    endloop
  endfacet
  facet normal 0.7071067811865476 0 -0.7071067811865476
    outer loop
      vertex 57.479183197021484 0.4000000059604645 37.5
      vertex 58.979183197021484 1.899999976158142 39
      vertex 58.979183197021484 1 39
    endloop
  endfacet
  facet normal 0 0 -1
    outer loop
      vertex 58.979183197021484 2.7755575615628914e-16 39
      vertex 58.979183197021484 1 39
      vertex 61.17918395996094 1 39
    endloop
  endfacet
  facet normal 0 0.7071068865536516 -0.7071066758194279
    outer loop
      vertex 58.979183197021484 1 39
      vertex 59.7791862487793 1.7999999523162842 39.80000019073486
      vertex 61.17918395996094 1 39
    endloop
  endfacet
  facet normal 0 1 0
    outer loop
      vertex 57.479183197021484 2.7755575615628914e-16 37.5
      vertex 58.979183197021484 2.7755575615628914e-16 39
      vertex 66.02081298828125 2.7755575615628914e-16 39
    endloop
  endfacet
  facet normal 0.7071055167825242 0 -0.7071080455883101
    outer loop
      vertex 58.979183197021484 1 39
      vertex 58.979183197021484 1.899999976158142 39
      vertex 59.7791862487793 1.7999999523162842 39.80000019073486
    endloop
  endfacet
  facet normal 0.7071055167825241 0 -0.70710804558831
    outer loop
      vertex 58.979183197021484 1.899999976158142 39
      vertex 58.979183197021484 2.200000047683716 39
      vertex 59.7791862487793 2.200000047683716 39.80000019073486
    endloop
  endfacet
  facet normal 0 -1 0
    outer loop
      vertex 58.979183197021484 2.200000047683716 39
      vertex 61.17918395996094 2.200000047683716 39
      vertex 59.7791862487793 2.200000047683716 39.80000019073486
    endloop
  endfacet
  facet normal -0.7071072026550578 0 -0.707106359717786
    outer loop
      vertex 61.17918395996094 1 39
      vertex 60.37918472290039 1.7999999523162842 39.80000019073486
      vertex 61.17918395996094 2.200000047683716 39
    endloop
  endfacet
  facet normal 0.7071055167825241 0 -0.70710804558831
    outer loop
      vertex 58.979183197021484 1.899999976158142 39
      vertex 59.7791862487793 2.200000047683716 39.80000019073486
      vertex 59.7791862487793 1.7999999523162842 39.80000019073486
    endloop
  endfacet
  facet normal 0 0 -1
    outer loop
      vertex 59.7791862487793 1.7999999523162842 39.80000019073486
      vertex 59.7791862487793 2.200000047683716 39.80000019073486
      vertex 60.37918472290039 1.7999999523162842 39.80000019073486
    endloop
  endfacet
  facet normal 0 0.7071068865536516 -0.7071066758194279
    outer loop
      vertex 61.17918395996094 1 39
      vertex 59.7791862487793 1.7999999523162842 39.80000019073486
      vertex 60.37918472290039 1.7999999523162842 39.80000019073486
    endloop
  endfacet
  facet normal 0 -1 0
    outer loop
      vertex 61.17918395996094 2.200000047683716 39
      vertex 60.37918472290039 2.200000047683716 39.80000019073486
      vertex 59.7791862487793 2.200000047683716 39.80000019073486
    endloop
  endfacet
  facet normal -0.7071072026550578 0 -0.7071063597177861
    outer loop
      vertex 61.17918395996094 2.200000047683716 39
      vertex 60.37918472290039 1.7999999523162842 39.80000019073486
      vertex 60.37918472290039 2.200000047683716 39.80000019073486
    endloop
  endfacet
  facet normal 0 0 -1
    outer loop
      vertex 59.7791862487793 2.200000047683716 39.80000019073486
      vertex 60.37918472290039 2.200000047683716 39.80000019073486
      vertex 60.37918472290039 1.7999999523162842 39.80000019073486
    endloop
  endfacet
  facet normal 0 0 -1
    outer loop
      vertex 58.979183197021484 2.7755575615628914e-16 39
      vertex 61.17918395996094 1 39
      vertex 66.02081298828125 2.7755575615628914e-16 39
    endloop
  endfacet
  facet normal 0 0 -1
    outer loop
      vertex 61.17918395996094 1 39
      vertex 61.17918395996094 2.200000047683716 39
      vertex 63.82081604003906 1 39
    endloop
  endfacet
  facet normal 0 0 -1
    outer loop
      vertex 63.82081604003906 1 39
      vertex 61.17918395996094 2.200000047683716 39
      vertex 63.82081604003906 2.200000047683716 39
    endloop
  endfacet
  facet normal 0 -1 0
    outer loop
      vertex 58.979183197021484 2.200000047683716 39
      vertex 72.6 2.200000047683716 22
      vertex 61.17918395996094 2.200000047683716 39
    endloop
  endfacet
  facet normal 0 -1 0
    outer loop
      vertex 61.17918395996094 2.200000047683716 39
      vertex 72.6 2.200000047683716 22
      vertex 63.82081604003906 2.200000047683716 39
    endloop
  endfacet
  facet normal 0 -1 0
    outer loop
      vertex 63.82081604003906 2.200000047683716 39
      vertex 72.6 2.200000047683716 22
      vertex 66.02081298828125 2.200000047683716 39
    endloop
  endfacet
  facet normal 0 -1 0
    outer loop
      vertex 66.02081298828125 2.200000047683716 39
      vertex 72.6 2.200000047683716 22
      vertex 72.6 2.200000047683716 39
    endloop
  endfacet
  facet normal 0 0 -1
    outer loop
      vertex 67.52081298828125 2.7755575615628914e-16 37.5
      vertex 67.52081298828125 0.4000000059604645 37.5
      vertex 72.6 0.4000000059604645 37.5
    endloop
  endfacet
  facet normal 0 0 -1
    outer loop
      vertex 67.52081298828125 2.7755575615628914e-16 37.5
      vertex 72.6 0.4000000059604645 37.5
      vertex 72.6 2.7755575615628914e-16 37.5
    endloop
  endfacet
  facet normal 0 1 0
    outer loop
      vertex 57.479183197021484 2.7755575615628914e-16 37.5
      vertex 66.02081298828125 2.7755575615628914e-16 39
      vertex 67.52081298828125 2.7755575615628914e-16 37.5
    endloop
  endfacet
  facet normal 0 0 -1
    outer loop
      vertex 61.17918395996094 1 39
      vertex 63.82081604003906 1 39
      vertex 66.02081298828125 2.7755575615628914e-16 39
    endloop
  endfacet
  facet normal 0 0 -1
    outer loop
      vertex 63.82081604003906 1 39
      vertex 66.02081298828125 1 39
      vertex 66.02081298828125 2.7755575615628914e-16 39
    endloop
  endfacet
  facet normal 0 0.7071068865536516 -0.7071066758194279
    outer loop
      vertex 63.82081604003906 1 39
      vertex 64.62081909179688 1.7999999523162842 39.80000019073486
      vertex 66.02081298828125 1 39
    endloop
  endfacet
  facet normal 0.7071055167825241 0 -0.70710804558831
    outer loop
      vertex 63.82081604003906 1 39
      vertex 63.82081604003906 2.200000047683716 39
      vertex 64.62081909179688 1.7999999523162842 39.80000019073486
    endloop
  endfacet
  facet normal 0 -1 0
    outer loop
      vertex 63.82081604003906 2.200000047683716 39
      vertex 66.02081298828125 2.200000047683716 39
      vertex 64.62081909179688 2.200000047683716 39.80000019073486
    endloop
  endfacet
  facet normal -0.7071088885316108 0 -0.7071046738352038
    outer loop
      vertex 66.02081298828125 1 39
      vertex 65.22081756591797 1.7999999523162842 39.80000019073486
      vertex 66.02081298828125 1.899999976158142 39
    endloop
  endfacet
  facet normal -0.7071088885316108 0 -0.7071046738352038
    outer loop
      vertex 66.02081298828125 1.899999976158142 39
      vertex 65.22081756591797 2.200000047683716 39.80000019073486
      vertex 66.02081298828125 2.200000047683716 39
    endloop
  endfacet
  facet normal 0.7071055167825241 0 -0.70710804558831
    outer loop
      vertex 63.82081604003906 2.200000047683716 39
      vertex 64.62081909179688 2.200000047683716 39.80000019073486
      vertex 64.62081909179688 1.7999999523162842 39.80000019073486
    endloop
  endfacet
  facet normal 0 0 -1
    outer loop
      vertex 64.62081909179688 1.7999999523162842 39.80000019073486
      vertex 64.62081909179688 2.200000047683716 39.80000019073486
      vertex 65.22081756591797 1.7999999523162842 39.80000019073486
    endloop
  endfacet
  facet normal 0 0 -1
    outer loop
      vertex 65.22081756591797 1.7999999523162842 39.80000019073486
      vertex 64.62081909179688 2.200000047683716 39.80000019073486
      vertex 65.22081756591797 2.200000047683716 39.80000019073486
    endloop
  endfacet
  facet normal 0 0.7071068865536516 -0.7071066758194279
    outer loop
      vertex 66.02081298828125 1 39
      vertex 64.62081909179688 1.7999999523162842 39.80000019073486
      vertex 65.22081756591797 1.7999999523162842 39.80000019073486
    endloop
  endfacet
  facet normal -0.7071088885316109 0 -0.7071046738352039
    outer loop
      vertex 66.02081298828125 1.899999976158142 39
      vertex 65.22081756591797 1.7999999523162842 39.80000019073486
      vertex 65.22081756591797 2.200000047683716 39.80000019073486
    endloop
  endfacet
  facet normal 0 -1 0
    outer loop
      vertex 66.02081298828125 2.200000047683716 39
      vertex 65.22081756591797 2.200000047683716 39.80000019073486
      vertex 64.62081909179688 2.200000047683716 39.80000019073486
    endloop
  endfacet
  facet normal -0.7071067811865476 0 -0.7071067811865476
    outer loop
      vertex 67.52081298828125 0.4000000059604645 37.5
      vertex 66.02081298828125 2.7755575615628914e-16 39
      vertex 66.02081298828125 1 39
    endloop
  endfacet
  facet normal -0.7071067811865476 0 -0.7071067811865476
    outer loop
      vertex 67.52081298828125 0.4000000059604645 37.5
      vertex 66.02081298828125 1 39
      vertex 66.02081298828125 1.899999976158142 39
    endloop
  endfacet
  facet normal -0.7071067811865476 0 -0.7071067811865476
    outer loop
      vertex 67.52081298828125 2.7755575615628914e-16 37.5
      vertex 66.02081298828125 2.7755575615628914e-16 39
      vertex 67.52081298828125 0.4000000059604645 37.5
    endloop
  endfacet
  facet normal 0 0.7071067882110224 -0.7071067741620727
    outer loop
      vertex 67.52081298828125 0.4000000059604645 37.5
      vertex 66.02081298828125 1.899999976158142 39
      vertex 72.6 1.899999976158142 39
    endloop
  endfacet
  facet normal 0 0 -1
    outer loop
      vertex 66.02081298828125 1.899999976158142 39
      vertex 66.02081298828125 2.200000047683716 39
      vertex 72.6 2.200000047683716 39
    endloop
  endfacet
  facet normal 0 0.7071067882110222 -0.7071067741620727
    outer loop
      vertex 67.52081298828125 0.4000000059604645 37.5
      vertex 72.6 1.899999976158142 39
      vertex 72.6 0.4000000059604645 37.5
    endloop
  endfacet
  facet normal 0 0 -1
    outer loop
      vertex 66.02081298828125 1.899999976158142 39
      vertex 72.6 2.200000047683716 39
      vertex 72.6 1.899999976158142 39
    endloop
  endfacet
  facet normal 1 0 0
    outer loop
      vertex 0.8 3.8 1.4
      vertex 0.8 45.8 43.4
      vertex 0.8 3.8 43.4
    endloop
  endfacet
  facet normal 0 1 0
    outer loop
      vertex 0.8 3.8 1.4
      vertex 0.8 3.8 43.4
      vertex 71.8 3.8 43.4
    endloop
  endfacet
  facet normal 1 0 0
    outer loop
      vertex 0.8 3.8 1.4
      vertex 0.8 45.8 1.4
      vertex 0.8 45.8 43.4
    endloop
  endfacet
  facet normal 0 0 1
    outer loop
      vertex 0.8 3.8 1.4
      vertex 71.8 45.8 1.4
      vertex 0.8 45.8 1.4
    endloop
  endfacet
  facet normal 0 -1 0
    outer loop
      vertex 0.8 45.8 1.4
      vertex 71.8 45.8 1.4
      vertex 0.8 45.8 43.4
    endloop
  endfacet
  facet normal 0 1 0
    outer loop
      vertex 0.8 3.8 1.4
      vertex 71.8 3.8 43.4
      vertex 71.8 3.8 1.4
    endloop
  endfacet
  facet normal 0 0 1
    outer loop
      vertex 0.8 3.8 1.4
      vertex 71.8 3.8 1.4
      vertex 71.8 45.8 1.4
    endloop
  endfacet
  facet normal -1 0 0
    outer loop
      vertex 71.8 3.8 1.4
      vertex 71.8 3.8 43.4
      vertex 71.8 45.8 1.4
    endloop
  endfacet
  facet normal 0 -1 0
    outer loop
      vertex 71.8 45.8 1.4
      vertex 71.8 45.8 43.4
      vertex 0.8 45.8 43.4
    endloop
  endfacet
  facet normal -1 0 0
    outer loop
      vertex 71.8 45.8 1.4
      vertex 71.8 3.8 43.4
      vertex 71.8 45.8 43.4
    endloop
  endfacet
  facet normal -1 0 0
    outer loop
      vertex 0 0 0
      vertex 0 1.899999976158142 22
      vertex 0 2.200000047683716 22
    endloop
  endfacet
  facet normal -1 0 0
    outer loop
      vertex 0 0 0
      vertex 0 2.7755575615628914e-16 23.5
      vertex 0 0.4000000059604645 23.5
    endloop
  endfacet
  facet normal -1 0 0
    outer loop
      vertex 0 0 0
      vertex 0 0.4000000059604645 23.5
      vertex 0 1.899999976158142 22
    endloop
  endfacet
  facet normal -1 0 0
    outer loop
      vertex 0 0 43.4
      vertex 0 0.4000000059604645 37.5
      vertex 0 2.7755575615628914e-16 37.5
    endloop
  endfacet
  facet normal -1 0 0
    outer loop
      vertex 0 0 43.4
      vertex 0 1.899999976158142 39
      vertex 0 0.4000000059604645 37.5
    endloop
  endfacet
  facet normal -1 0 0
    outer loop
      vertex 0 0 43.4
      vertex 0 2.200000047683716 39
      vertex 0 1.899999976158142 39
    endloop
  endfacet
  facet normal -1 0 0
    outer loop
      vertex 0 0 0
      vertex 0 2.200000047683716 22
      vertex 0 47 43.4
    endloop
  endfacet
  facet normal -1 0 0
    outer loop
      vertex 0 47 43.4
      vertex 0 2.200000047683716 22
      vertex 0 2.200000047683716 39
    endloop
  endfacet
  facet normal -1 0 0
    outer loop
      vertex 0 0 43.4
      vertex 0 47 43.4
      vertex 0 2.200000047683716 39
    endloop
  endfacet
  facet normal 0 0 1
    outer loop
      vertex 0 0 43.4
      vertex 0.8 3.8 43.4
      vertex 0 47 43.4
    endloop
  endfacet
  facet normal -7.060500449670564e-18 -1 1.1810883240693155e-17
    outer loop
      vertex 0 0 0
      vertex 72.6 0 43.4
      vertex 0 2.7755575615628914e-16 23.5
    endloop
  endfacet
  facet normal 7.881430668561718e-18 -1 -4.270088556250602e-17
    outer loop
      vertex 72.6 0 43.4
      vertex 0 4.707671335244512e-34 30
      vertex 0 2.7755575615628914e-16 23.5
    endloop
  endfacet
  facet normal 2.05165406164372e-34 -1 -1.1466996732132728e-33
    outer loop
      vertex 72.6 0 43.4
      vertex 0.5000000000000003 0 30.5
      vertex 0 4.707671335244512e-34 30
    endloop
  endfacet
  facet normal -2.9120964304947405e-18 -1 -5.3634112050833076e-18
    outer loop
      vertex 72.6 0 43.4
      vertex 0.22699524462223053 2.7755575615628914e-16 30.945503264665604
      vertex 0.25 2.7755575615628914e-16 30.933012694120407
    endloop
  endfacet
  facet normal -2.9943137046814896e-18 -1 -4.886277504577493e-18
    outer loop
      vertex 72.6 0 43.4
      vertex 0.25 2.7755575615628914e-16 30.933012694120407
      vertex 0.2723195254802704 2.7755575615628914e-16 30.919335275888443
    endloop
  endfacet
  facet normal -3.067349452191119e-18 -1 -4.4630223073691e-18
    outer loop
      vertex 72.6 0 43.4
      vertex 0.2723195254802704 2.7755575615628914e-16 30.919335275888443
      vertex 0.29389262199401855 2.7755575615628914e-16 30.904508501291275
    endloop
  endfacet
  facet normal 9.196685971935259e-15 -1 -5.384511302923386e-14
    outer loop
      vertex 72.6 0 43.4
      vertex 0 0 31
      vertex 0.02616797760128975 2.7755575615628914e-16 30.99931475520134
    endloop
  endfacet
  facet normal -1.2060237304513157e-18 -1 -1.532415255899835e-17
    outer loop
      vertex 72.6 0 43.4
      vertex 0.02616797760128975 2.7755575615628914e-16 30.99931475520134
      vertex 0.05226423218846321 2.7755575615628914e-16 30.997260957956314
    endloop
  endfacet
  facet normal -6.043515786265978e-15 -1 3.532815042944466e-14
    outer loop
      vertex 72.6 0 43.4
      vertex 0.05226423218846321 2.7755575615628914e-16 30.997260957956314
      vertex 0.07821723073720932 0 30.99384418129921
    endloop
  endfacet
  facet normal 5.175921405401601e-15 -1 -3.0256515658741894e-14
    outer loop
      vertex 72.6 0 43.4
      vertex 0.07821723073720932 0 30.99384418129921
      vertex 0.10395584255456924 2.7755575615628914e-16 30.98907381296158
    endloop
  endfacet
  facet normal -4.54121489209733e-15 -1 2.6504271690320558e-14
    outer loop
      vertex 72.6 0 43.4
      vertex 0.10395584255456924 2.7755575615628914e-16 30.98907381296158
      vertex 0.12940952181816098 0 30.982962906360626
    endloop
  endfacet
  facet normal 0 -1 0
    outer loop
      vertex 72.6 0 43.4
      vertex 0.12940952181816098 0 30.982962906360626
      vertex 0.15450850129127497 0 30.97552827000618
    endloop
  endfacet
  facet normal 3.670108458219906e-15 -1 -2.1399928857131493e-14
    outer loop
      vertex 72.6 0 43.4
      vertex 0.15450850129127497 0 30.97552827000618
      vertex 0.1791839748620987 2.7755575615628914e-16 30.966790199279785
    endloop
  endfacet
  facet normal -3.3656328031184256e-15 -1 1.9581775115911687e-14
    outer loop
      vertex 72.6 0 43.4
      vertex 0.1791839748620987 2.7755575615628914e-16 30.966790199279785
      vertex 0.20336832106113426 0 30.956772714853287
    endloop
  endfacet
  facet normal 3.1118091557783325e-15 -1 -1.810498965770337e-14
    outer loop
      vertex 72.6 0 43.4
      vertex 0.20336832106113426 0 30.956772714853287
      vertex 0.22699524462223053 2.7755575615628914e-16 30.945503264665604
    endloop
  endfacet
  facet normal -3.691735871515215e-18 -1 -8.863101036423507e-19
    outer loop
      vertex 72.6 0 43.4
      vertex 0.4829629063606262 2.7755575615628914e-16 30.62940952181816
      vertex 0.48907381296157837 2.7755575615628914e-16 30.60395584255457
    endloop
  endfacet
  facet normal -3.726454355707058e-18 -1 -6.9065728937572215e-19
    outer loop
      vertex 72.6 0 43.4
      vertex 0.48907381296157837 2.7755575615628914e-16 30.60395584255457
      vertex 0.4938441812992096 2.7755575615628914e-16 30.57821723073721
    endloop
  endfacet
  facet normal -1.8619465441720617e-15 -1 1.0449424568726277e-14
    outer loop
      vertex 72.6 0 43.4
      vertex 0.4938441812992096 2.7755575615628914e-16 30.57821723073721
      vertex 0.4972609579563138 0 30.552264232188463
    endloop
  endfacet
  facet normal -3.621651328071013e-18 -1 -1.2824979978671467e-18
    outer loop
      vertex 72.6 0 43.4
      vertex 0.46679019927978516 2.7755575615628914e-16 30.6791839748621
      vertex 0.4755282700061798 2.7755575615628914e-16 30.654508501291275
    endloop
  endfacet
  facet normal -3.6568684001429985e-18 -1 -1.0832108444979536e-18
    outer loop
      vertex 72.6 0 43.4
      vertex 0.4755282700061798 2.7755575615628914e-16 30.654508501291275
      vertex 0.4829629063606262 2.7755575615628914e-16 30.62940952181816
    endloop
  endfacet
  facet normal -1.888880621547003e-15 -1 1.055723200104953e-14
    outer loop
      vertex 72.6 0 43.4
      vertex 0.4993147552013397 2.7755575615628914e-16 30.52616797760129
      vertex 0.5000000000000003 0 30.5
    endloop
  endfacet
  facet normal 1.868955244533972e-15 -1 -1.0488758074828169e-14
    outer loop
      vertex 72.6 0 43.4
      vertex 0.4972609579563138 0 30.552264232188463
      vertex 0.4993147552013397 2.7755575615628914e-16 30.52616797760129
    endloop
  endfacet
  facet normal -3.511791207292823e-18 -1 -1.9067481959429994e-18
    outer loop
      vertex 72.6 0 43.4
      vertex 0.4330126941204071 2.7755575615628914e-16 30.75
      vertex 0.44550326466560364 2.7755575615628914e-16 30.72699524462223
    endloop
  endfacet
  facet normal -3.549342551700197e-18 -1 -1.6929474115390688e-18
    outer loop
      vertex 72.6 0 43.4
      vertex 0.44550326466560364 2.7755575615628914e-16 30.72699524462223
      vertex 0.45677271485328674 2.7755575615628914e-16 30.703368321061134
    endloop
  endfacet
  facet normal -3.585883065220395e-18 -1 -1.4853214333535175e-18
    outer loop
      vertex 72.6 0 43.4
      vertex 0.45677271485328674 2.7755575615628914e-16 30.703368321061134
      vertex 0.46679019927978516 2.7755575615628914e-16 30.6791839748621
    endloop
  endfacet
  facet normal -3.3902633613406608e-18 -1 -2.6014395634485393e-18
    outer loop
      vertex 72.6 0 43.4
      vertex 0.3885729908943176 2.7755575615628914e-16 30.81466019153595
      vertex 0.404508501291275 2.7755575615628914e-16 30.79389262199402
    endloop
  endfacet
  facet normal -3.432571403348364e-18 -1 -2.3591403512090792e-18
    outer loop
      vertex 72.6 0 43.4
      vertex 0.404508501291275 2.7755575615628914e-16 30.79389262199402
      vertex 0.419335275888443 2.7755575615628914e-16 30.77231952548027
    endloop
  endfacet
  facet normal -3.472967034827638e-18 -1 -2.128236224517023e-18
    outer loop
      vertex 72.6 0 43.4
      vertex 0.419335275888443 2.7755575615628914e-16 30.77231952548027
      vertex 0.4330126941204071 2.7755575615628914e-16 30.75
    endloop
  endfacet
  facet normal -2.2611955417870908e-15 -1 1.3020686095739964e-14
    outer loop
      vertex 72.6 0 43.4
      vertex 0.33456531167030334 2.7755575615628914e-16 30.87157240509987
      vertex 0.35355338454246504 0 30.853553384542465
    endloop
  endfacet
  facet normal 2.179328083216354e-15 -1 -1.2549267122985802e-14
    outer loop
      vertex 72.6 0 43.4
      vertex 0.35355338454246504 0 30.853553384542465
      vertex 0.3715724050998688 2.7755575615628914e-16 30.834565311670303
    endloop
  endfacet
  facet normal -3.3456444254624555e-18 -1 -2.857451485289513e-18
    outer loop
      vertex 72.6 0 43.4
      vertex 0.3715724050998688 2.7755575615628914e-16 30.834565311670303
      vertex 0.3885729908943176 2.7755575615628914e-16 30.81466019153595
    endloop
  endfacet
  facet normal -3.133017456732053e-18 -1 -4.083029428487738e-18
    outer loop
      vertex 72.6 0 43.4
      vertex 0.29389262199401855 2.7755575615628914e-16 30.904508501291275
      vertex 0.3146601915359497 2.7755575615628914e-16 30.888572990894318
    endloop
  endfacet
  facet normal -3.1927058971900787e-18 -1 -3.738176743177923e-18
    outer loop
      vertex 72.6 0 43.4
      vertex 0.3146601915359497 2.7755575615628914e-16 30.888572990894318
      vertex 0.33456531167030334 2.7755575615628914e-16 30.87157240509987
    endloop
  endfacet
  facet normal -7.293264200758603e-18 -1 4.2700885562506023e-17
    outer loop
      vertex 0 2.7755575615628914e-16 37.5
      vertex 0 0 31
      vertex 72.6 0 43.4
    endloop
  endfacet
  facet normal 0 -1 -4.704334850106597e-17
    outer loop
      vertex 0 0 43.4
      vertex 0 2.7755575615628914e-16 37.5
      vertex 72.6 0 43.4
    endloop
  endfacet
  facet normal 0 0 1
    outer loop
      vertex 0 0 43.4
      vertex 72.6 0 43.4
      vertex 0.8 3.8 43.4
    endloop
  endfacet
  facet normal -1 0 0
    outer loop
      vertex 0 0 0
      vertex 0 47 43.4
      vertex 0 47 0
    endloop
  endfacet
  facet normal 0 0 -1
    outer loop
      vertex 0 0 0
      vertex 0 47 0
      vertex 72.6 47 0
    endloop
  endfacet
  facet normal 0 1 0
    outer loop
      vertex 0 47 0
      vertex 0 47 43.4
      vertex 72.6 47 0
    endloop
  endfacet
  facet normal 0 0 1
    outer loop
      vertex 0 47 43.4
      vertex 0.8 3.8 43.4
      vertex 0.8 45.8 43.4
    endloop
  endfacet
  facet normal 0 0 1
    outer loop
      vertex 0 47 43.4
      vertex 0.8 45.8 43.4
      vertex 71.8 45.8 43.4
    endloop
  endfacet
  facet normal 0 -1 1.1810883240693155e-17
    outer loop
      vertex 72.6 0 0
      vertex 72.6 2.7755575615628914e-16 23.5
      vertex 0 0 0
    endloop
  endfacet
  facet normal 3.823082040720237e-18 -1 0
    outer loop
      vertex 72.6 2.7755575615628914e-16 23.5
      vertex 72.6 2.7755575615628914e-16 37.5
      vertex 0 0 0
    endloop
  endfacet
  facet normal 0 0 -1
    outer loop
      vertex 0 0 0
      vertex 72.6 47 0
      vertex 72.6 0 0
    endloop
  endfacet
  facet normal 1 0 0
    outer loop
      vertex 72.6 0 0
      vertex 72.6 2.200000047683716 22
      vertex 72.6 1.899999976158142 22
    endloop
  endfacet
  facet normal 1 0 0
    outer loop
      vertex 72.6 0 0
      vertex 72.6 0.4000000059604645 23.5
      vertex 72.6 2.7755575615628914e-16 23.5
    endloop
  endfacet
  facet normal 1 0 0
    outer loop
      vertex 72.6 0 0
      vertex 72.6 1.899999976158142 22
      vertex 72.6 0.4000000059604645 23.5
    endloop
  endfacet
  facet normal 1 0 0
    outer loop
      vertex 72.6 0 0
      vertex 72.6 47 0
      vertex 72.6 2.200000047683716 22
    endloop
  endfacet
  facet normal 1 0 0
    outer loop
      vertex 72.6 47 0
      vertex 72.6 2.200000047683716 39
      vertex 72.6 2.200000047683716 22
    endloop
  endfacet
  facet normal 2.81223322995353e-17 -1 -4.7043348501065965e-17
    outer loop
      vertex 0 0 0
      vertex 72.6 2.7755575615628914e-16 37.5
      vertex 72.6 0 43.4
    endloop
  endfacet
  facet normal 0 0 1
    outer loop
      vertex 72.6 0 43.4
      vertex 71.8 3.8 43.4
      vertex 0.8 3.8 43.4
    endloop
  endfacet
  facet normal 1 0 0
    outer loop
      vertex 72.6 0 43.4
      vertex 72.6 2.7755575615628914e-16 37.5
      vertex 72.6 0.4000000059604645 37.5
    endloop
  endfacet
  facet normal 1 0 0
    outer loop
      vertex 72.6 0 43.4
      vertex 72.6 0.4000000059604645 37.5
      vertex 72.6 1.899999976158142 39
    endloop
  endfacet
  facet normal 1 0 0
    outer loop
      vertex 72.6 0 43.4
      vertex 72.6 1.899999976158142 39
      vertex 72.6 2.200000047683716 39
    endloop
  endfacet
  facet normal 1 0 0
    outer loop
      vertex 72.6 0 43.4
      vertex 72.6 2.200000047683716 39
      vertex 72.6 47 0
    endloop
  endfacet
  facet normal 0 0 1
    outer loop
      vertex 72.6 0 43.4
      vertex 72.6 47 43.4
      vertex 71.8 3.8 43.4
    endloop
  endfacet
  facet normal 0 1 0
    outer loop
      vertex 0 47 43.4
      vertex 72.6 47 43.4
      vertex 72.6 47 0
    endloop
  endfacet
  facet normal 0 0 1
    outer loop
      vertex 0 47 43.4
      vertex 71.8 45.8 43.4
      vertex 72.6 47 43.4
    endloop
  endfacet
  facet normal 1 0 0
    outer loop
      vertex 72.6 0 43.4
      vertex 72.6 47 0
      vertex 72.6 47 43.4
    endloop
  endfacet
  facet normal 0 0 1
    outer loop
      vertex 72.6 47 43.4
      vertex 71.8 45.8 43.4
      vertex 71.8 3.8 43.4
    endloop
  endfacet
endsolid OpenSCAD_Model
